<?xml version="1.0" encoding="utf-8"?>
<!-- Generator: Adobe Illustrator 27.5.0, SVG Export Plug-In . SVG Version: 6.00 Build 0)  -->
<svg version="1.1" xmlns="http://www.w3.org/2000/svg" xmlns:xlink="http://www.w3.org/1999/xlink" x="0px" y="0px"
	 viewBox="0 0 500 500" style="enable-background:new 0 0 500 500;" xml:space="preserve">
<g id="BACKGROUND">
	<rect style="fill:#FFFAEF;" width="500" height="500"/>
</g>
<g id="OBJECT">
	<g>
		<path style="fill:#DAD7C6;" d="M250,446.686c-52.537,0-101.929-20.459-139.078-57.607c-37.149-37.15-57.608-86.541-57.608-139.079
			c0-52.537,20.459-101.928,57.608-139.078C148.071,73.773,197.463,53.314,250,53.314s101.928,20.459,139.077,57.608
			c37.15,37.149,57.608,86.541,57.608,139.078c0,52.538-20.459,101.928-57.608,139.079C351.928,426.227,302.537,446.686,250,446.686
			z M250,57.747c-106.009,0-192.253,86.244-192.253,192.252S143.991,442.252,250,442.252c106.008,0,192.252-86.244,192.252-192.252
			S356.008,57.747,250,57.747z"/>
		<g>
			<rect x="190.507" y="177.828" style="fill:#E4BC67;" width="119.065" height="38.778"/>
			<polygon style="fill:#E4BC67;" points="188.327,195.033 188.327,231.71 152.553,231.71 169.369,214.895 152.553,195.033 			"/>
			<polygon style="fill:#DB9C32;" points="190.507,218.613 190.507,231.71 205.386,218.613 			"/>
			<polygon style="fill:#E4BC67;" points="311.674,195.033 311.674,231.71 347.447,231.71 330.631,214.895 347.447,195.033 			"/>
			<polygon style="fill:#DB9C32;" points="309.493,218.613 309.493,231.71 294.615,218.613 			"/>
		</g>
		<text transform="matrix(1 0 0 1 190.9556 170.375)" style="fill:#8FC8CB; font-family:'Amatic-Bold'; font-size:53.1181px;">internet</text>
		<text transform="matrix(1 0 0 1 200.4336 209.7959)" style="fill:#FFFAEF; font-family:'Amatic-Bold'; font-size:41.9472px;">of things</text>
		<g>
			<g>
				<path style="fill:#DDCFA3;" d="M274.823,400.577c0,3.167-2.567,5.735-5.735,5.735h-37.909c-3.167,0-5.734-2.568-5.734-5.735
					v-3.012c0-3.167,2.567-5.734,5.734-5.734h37.909c3.168,0,5.735,2.567,5.735,5.734V400.577z"/>
				<path style="fill:#898F92;" d="M250.134,396.255c-22.393,0-40.546,18.153-40.546,40.547V500h81.093v-63.198
					C290.681,414.408,272.528,396.255,250.134,396.255z"/>
				<rect x="237.686" y="341.127" style="fill:#E1A889;" width="24.895" height="70.719"/>
				<g>
					<path style="fill:#EEDEA7;" d="M246.828,419.115c-2.239,2.239-5.871,2.239-8.11,0l-15.469-15.469
						c-2.238-2.241-2.237-5.87,0-8.108l2.027-2.028c2.239-2.239,5.871-2.239,8.11,0l15.469,15.469c2.239,2.239,2.239,5.87,0,8.109
						L246.828,419.115z"/>
					<path style="fill:#EEDEA7;" d="M253.441,419.115c2.238,2.239,5.869,2.239,8.107,0l15.469-15.469c2.241-2.241,2.24-5.87,0-8.108
						l-2.026-2.028c-2.239-2.239-5.87-2.239-8.11,0l-15.467,15.469c-2.24,2.239-2.24,5.87,0,8.109L253.441,419.115z"/>
				</g>
				<g>
					<path style="fill:#454F56;" d="M292.652,290.55c0,23.482-19.035,42.518-42.518,42.518c-23.483,0-42.518-19.035-42.518-42.518
						c0-23.482,19.035-42.519,42.518-42.519C273.617,248.031,292.652,267.067,292.652,290.55z"/>
					<path style="fill:#E4CDB6;" d="M288.36,335.87c0,21.111-17.114,38.227-38.227,38.227c-21.11,0-38.226-17.115-38.226-38.227
						c0-21.111,17.116-38.226,38.226-38.226C271.246,297.645,288.36,314.759,288.36,335.87z"/>
					<path style="fill:#E4CDB6;" d="M282.148,274.23c0-3.167-2.567-5.734-5.733-5.734h-52.562c-3.167,0-5.734,2.567-5.734,5.734
						v72.152c0,3.168,2.567,5.733,5.734,5.733h52.562c3.166,0,5.733-2.565,5.733-5.733V274.23z"/>
					<path style="fill:#707173;" d="M250.134,338.821c-7.501,0-13.604-6.101-13.604-13.604c0-1.018,0.826-1.845,1.844-1.845
						c1.019,0,1.846,0.826,1.846,1.845c0,5.468,4.448,9.914,9.914,9.914c5.466,0,9.914-4.446,9.914-9.914
						c0-1.018,0.825-1.845,1.845-1.845c1.02,0,1.846,0.826,1.846,1.845C263.738,332.721,257.636,338.821,250.134,338.821z"/>
					<path style="fill:#454F56;" d="M272.103,246.05c0,12.133-9.835,21.97-21.969,21.97c-12.133,0-21.968-9.837-21.968-21.97
						s9.835-21.97,21.968-21.97C262.268,224.08,272.103,233.917,272.103,246.05z"/>
					<path style="fill:#E4CDB6;" d="M220.262,312.721c0,4.614-3.741,8.353-8.354,8.353c-4.613,0-8.353-3.738-8.353-8.353
						c0-4.613,3.74-8.354,8.353-8.354C216.52,304.367,220.262,308.107,220.262,312.721z"/>
					<path style="fill:#E4CDB6;" d="M296.713,312.721c0,4.614-3.74,8.353-8.353,8.353s-8.353-3.738-8.353-8.353
						c0-4.613,3.741-8.354,8.353-8.354S296.713,308.107,296.713,312.721z"/>
					<g>
						<path style="fill:#454F56;" d="M239.19,306.838c0,2.494-2.02,4.512-4.511,4.512c-2.492,0-4.511-2.018-4.511-4.512
							c0-2.491,2.02-4.51,4.511-4.51C237.17,302.328,239.19,304.347,239.19,306.838z"/>
						<path style="fill:#454F56;" d="M271.768,306.838c0,2.494-2.02,4.512-4.51,4.512c-2.493,0-4.512-2.018-4.512-4.512
							c0-2.491,2.018-4.51,4.512-4.51C269.748,302.328,271.768,304.347,271.768,306.838z"/>
					</g>
					<path style="fill:#454F56;" d="M240.693,292.145c0,1.38-1.119,2.498-2.499,2.498h-7.617c-1.38,0-2.499-1.118-2.499-2.498l0,0
						c0-1.38,1.119-2.499,2.499-2.499h7.617C239.575,289.645,240.693,290.765,240.693,292.145L240.693,292.145z"/>
					<path style="fill:#454F56;" d="M272.189,292.145c0,1.38-1.119,2.498-2.499,2.498h-7.618c-1.379,0-2.497-1.118-2.497-2.498l0,0
						c0-1.38,1.118-2.499,2.497-2.499h7.618C271.07,289.645,272.189,290.765,272.189,292.145L272.189,292.145z"/>
					<path style="fill:#454F56;" d="M226.097,309.815c0,3.339-2.469,6.045-5.514,6.045l0,0c-3.045,0-5.513-2.706-5.513-6.045
						v-40.368c0-3.339,2.468-6.046,5.513-6.046l0,0c3.044,0,5.514,2.707,5.514,6.046V309.815z"/>
					<path style="fill:#454F56;" d="M285.197,309.815c0,3.339-2.469,6.045-5.512,6.045l0,0c-3.047,0-5.516-2.706-5.516-6.045
						v-40.368c0-3.339,2.469-6.046,5.516-6.046l0,0c3.043,0,5.512,2.707,5.512,6.046V309.815z"/>
					<path style="fill:#626364;" d="M265.277,236.694c0,3.413-2.767,6.182-6.18,6.182c-3.414,0-6.184-2.769-6.184-6.182
						c0-3.414,2.77-6.182,6.184-6.182C262.511,230.513,265.277,233.28,265.277,236.694z"/>
					<rect x="226.097" y="268.496" style="fill:#E1A889;" width="48.073" height="8.939"/>
					<g>
						<path style="fill:#D49271;" d="M255.111,324.45c0,2.749-2.228,4.978-4.978,4.978l0,0c-2.748,0-4.977-2.229-4.977-4.978
							v-15.104c0-2.749,2.23-4.979,4.977-4.979l0,0c2.75,0,4.978,2.229,4.978,4.979V324.45z"/>
						<path style="fill:#FFFFFF;" d="M253.679,320.533c0,0.826-0.671,1.496-1.497,1.496l0,0c-0.826,0-1.496-0.67-1.496-1.496v-6.73
							c0-0.827,0.67-1.497,1.496-1.497l0,0c0.826,0,1.497,0.67,1.497,1.497V320.533z"/>
					</g>
				</g>
			</g>
			<path style="fill:#E1A889;" d="M203.578,474.972c-3.131,0-5.668-2.538-5.668-5.669v-15.77c0-3.132,2.538-5.669,5.668-5.669l0,0
				c3.131,0,5.669,2.537,5.669,5.669v15.77C209.247,472.434,206.709,474.972,203.578,474.972L203.578,474.972z"/>
			<path style="fill:#E1A889;" d="M296.421,474.972c3.131,0,5.67-2.538,5.67-5.669v-15.77c0-3.132-2.539-5.669-5.67-5.669l0,0
				c-3.131,0-5.668,2.537-5.668,5.669v15.77C290.753,472.434,293.29,474.972,296.421,474.972L296.421,474.972z"/>
			<path style="fill:#E1A889;" d="M274.832,318.949c0,2.296-1.863,4.16-4.161,4.16c-2.297,0-4.159-1.864-4.159-4.16
				c0-2.299,1.862-4.161,4.159-4.161C272.969,314.788,274.832,316.65,274.832,318.949z"/>
			<path style="fill:#E1A889;" d="M232.3,318.949c0,2.296-1.862,4.16-4.16,4.16c-2.298,0-4.16-1.864-4.16-4.16
				c0-2.299,1.862-4.161,4.16-4.161C230.438,314.788,232.3,316.65,232.3,318.949z"/>
			<path style="fill:#454F56;" d="M296.359,464.163c0,3.282-2.566,5.941-5.733,5.941h-81.832c-3.168,0-5.734-2.659-5.734-5.941
				v-43.087c0-3.283,2.566-5.943,5.734-5.943h81.832c3.167,0,5.733,2.66,5.733,5.943V464.163z"/>
			<path style="fill:#E1A889;" d="M225.417,469.303c0,3.131-2.538,5.669-5.669,5.669h-15.769c-3.131,0-5.669-2.538-5.669-5.669l0,0
				c0-3.132,2.538-5.669,5.669-5.669h15.769C222.879,463.634,225.417,466.171,225.417,469.303L225.417,469.303z"/>
			<path style="fill:#E1A889;" d="M274.582,469.303c0,3.131,2.537,5.669,5.668,5.669h15.77c3.132,0,5.668-2.538,5.668-5.669l0,0
				c0-3.132-2.536-5.669-5.668-5.669h-15.77C277.119,463.634,274.582,466.171,274.582,469.303L274.582,469.303z"/>
		</g>
		<g>
			<path style="fill:#E4BC67;" d="M202.508,67.136c0,26.229,21.263,47.494,47.492,47.494c26.23,0,47.492-21.264,47.492-47.494
				c0-26.23-21.262-47.492-47.492-47.492C223.77,19.644,202.508,40.906,202.508,67.136z"/>
			<g>
				<polygon style="fill:#FFFAEF;" points="268.872,56.326 250.604,37.321 231.13,56.326 231.13,92.997 268.872,92.997 				"/>
				<rect x="261.603" y="29.796" style="fill:#626364;" width="7.675" height="27.027"/>
				<rect x="242.61" y="70.732" style="fill:#454F56;" width="14.781" height="22.265"/>
				<g>
					
						<rect x="214.782" y="47.457" transform="matrix(0.7151 -0.699 0.699 0.7151 31.2415 180.5234)" style="fill:#773020;" width="44.631" height="8.951"/>
					
						<rect x="258.428" y="29.617" transform="matrix(0.699 -0.7151 0.7151 0.699 41.9925 203.6353)" style="fill:#773020;" width="8.951" height="44.631"/>
				</g>
			</g>
		</g>
		<g>
			<path style="fill:#8FC8CB;" d="M146.469,115.66c0,26.229-21.264,47.493-47.493,47.493S51.483,141.89,51.483,115.66
				s21.263-47.492,47.492-47.492S146.469,89.431,146.469,115.66z"/>
			<g>
				<path style="fill:#FFFAEF;" d="M119.412,100.886c0-4.78-3.874-8.655-8.655-8.655H87.195c-4.78,0-8.655,3.875-8.655,8.655v21.639
					c0,4.78,3.875,8.654,8.655,8.654h23.562c4.781,0,8.655-3.874,8.655-8.654V100.886z"/>
				<path style="fill:#454F56;" d="M110.595,95.566h-9.04h-5.157h-9.04c-2.881,0-5.215,2.334-5.215,5.215v13.038
					c0,2.881,2.334,5.216,5.215,5.216h9.04h5.157h9.04c2.881,0,5.215-2.335,5.215-5.216v-13.038
					C115.81,97.9,113.476,95.566,110.595,95.566z"/>
				<path style="fill:#FFFAEF;" d="M137.686,122.524c0,4.78-3.875,8.654-8.655,8.654H68.923c-4.781,0-8.655-3.874-8.655-8.654
					v-4.088c0-4.779,3.874-8.655,8.655-8.655h60.108c4.78,0,8.655,3.876,8.655,8.655V122.524z"/>
				<g>
					<g>
						<path style="fill:#707173;" d="M86.523,130.677c0,4.646-3.768,8.414-8.416,8.414c-4.646,0-8.415-3.767-8.415-8.414
							c0-4.648,3.77-8.415,8.415-8.415C82.756,122.262,86.523,126.029,86.523,130.677z"/>
						<path style="fill:#FFFAEF;" d="M80.338,130.677c0,1.229-0.999,2.229-2.229,2.229c-1.23,0-2.229-0.999-2.229-2.229
							c0-1.232,0.998-2.23,2.229-2.23C79.339,128.447,80.338,129.445,80.338,130.677z"/>
					</g>
					<g>
						<path style="fill:#707173;" d="M128.26,130.677c0,4.646-3.769,8.414-8.416,8.414c-4.647,0-8.415-3.767-8.415-8.414
							c0-4.648,3.768-8.415,8.415-8.415C124.491,122.262,128.26,126.029,128.26,130.677z"/>
						<path style="fill:#FFFAEF;" d="M122.073,130.677c0,1.229-0.999,2.229-2.228,2.229c-1.231,0-2.23-0.999-2.23-2.229
							c0-1.232,0.998-2.23,2.23-2.23C121.074,128.447,122.073,129.445,122.073,130.677z"/>
					</g>
				</g>
				<rect x="97.428" y="92.23" style="fill:#FFFAEF;" width="3.098" height="21.587"/>
				<polygon style="fill:#626364;" points="82.143,109.781 97.428,95.566 97.428,109.781 				"/>
				<path style="fill:#626364;" d="M114.225,97.04l-13.699,12.741h15.284v-9C115.81,99.313,115.202,97.989,114.225,97.04z"/>
			</g>
		</g>
		<g>
			<path style="fill:#8FC8CB;" d="M342.31,115.66c0,26.229,21.264,47.492,47.494,47.492s47.492-21.264,47.492-47.492
				c0-26.229-21.262-47.492-47.492-47.492S342.31,89.431,342.31,115.66z"/>
			<g>
				<path style="fill:#FFFAEF;" d="M404.767,140.041c-6.695-1.576-7.088-8.182-7.088-13.17h-7.875h-7.875
					c0,4.988-0.393,11.594-7.088,13.17c-3.81,0.896-3.805,5.905-3.805,5.905h18.768h18.768
					C408.571,145.946,408.577,140.938,404.767,140.041z"/>
				<g>
					<path style="fill:#FFFAEF;" d="M420.167,124.019c0,4.196-3.402,7.599-7.6,7.599h-45.529c-4.195,0-7.598-3.402-7.598-7.599
						V92.974c0-4.198,3.402-7.6,7.598-7.6h45.529c4.197,0,7.6,3.401,7.6,7.6V124.019z"/>
					<path style="fill:#454F56;" d="M413.935,120.832c0,3.335-2.703,6.039-6.039,6.039h-36.184c-3.336,0-6.039-2.704-6.039-6.039
						V96.158c0-3.335,2.703-6.038,6.039-6.038h36.184c3.336,0,6.039,2.703,6.039,6.038V120.832z"/>
					<path style="fill:#626364;" d="M408.218,126.871c3.336,0,6.039-2.704,6.039-6.039V96.158c0-1.817-0.805-3.443-2.076-4.55
						l-43.898,33.951c1.031,0.819,2.334,1.312,3.752,1.312H408.218z"/>
				</g>
			</g>
		</g>
		<g>
			<path style="fill:#8FC8CB;" d="M146.469,384.339c0,26.229-21.264,47.493-47.493,47.493s-47.492-21.264-47.492-47.493
				c0-26.23,21.263-47.492,47.492-47.492S146.469,358.109,146.469,384.339z"/>
			<g>
				<path style="fill:#FFFAEF;" d="M117.662,411.73c0,4.197-3.402,7.599-7.6,7.599H87.89c-4.197,0-7.6-3.401-7.6-7.599v-54.782
					c0-4.196,3.402-7.599,7.6-7.599h22.173c4.197,0,7.6,3.402,7.6,7.599V411.73z"/>
				<path style="fill:#626364;" d="M113.909,401.582c0,4.036-3.242,7.31-7.24,7.31H91.283c-3.998,0-7.239-3.273-7.239-7.31v-37.767
					c0-4.036,3.241-7.309,7.239-7.309h15.386c3.998,0,7.24,3.272,7.24,7.309V401.582z"/>
				<path style="fill:#DAD7C6;" d="M105.76,353.377c0,0.687-0.556,1.241-1.242,1.241H93.435c-0.687,0-1.243-0.555-1.243-1.241l0,0
					c0-0.687,0.557-1.244,1.243-1.244h11.083C105.204,352.133,105.76,352.69,105.76,353.377L105.76,353.377z"/>
				<path style="fill:#DAD7C6;" d="M102.702,414.145c0,2.059-1.668,3.727-3.727,3.727c-2.058,0-3.726-1.668-3.726-3.727
					c0-2.057,1.668-3.726,3.726-3.726C101.034,410.42,102.702,412.089,102.702,414.145z"/>
				<path style="fill:#454F56;" d="M106.669,356.507H91.283c-3.998,0-7.239,3.272-7.239,7.309v37.767
					c0,1.999,0.797,3.809,2.085,5.128l25.69-48.026C110.507,357.34,108.685,356.507,106.669,356.507z"/>
			</g>
		</g>
		<g>
			<path style="fill:#8FC8CB;" d="M342.31,384.339c0,26.229,21.262,47.493,47.492,47.493c26.23,0,47.492-21.264,47.492-47.493
				c0-26.23-21.262-47.492-47.492-47.492C363.572,336.847,342.31,358.109,342.31,384.339z"/>
			<g>
				<path style="fill:#E4BC67;" d="M410.787,375.201c0,11.589-9.395,20.984-20.984,20.984c-11.59,0-20.985-9.396-20.985-20.984
					c0-11.59,9.396-20.984,20.985-20.984C401.393,354.217,410.787,363.611,410.787,375.201z"/>
				<rect x="380.386" y="385.513" style="fill:#E4BC67;" width="18.832" height="14.761"/>
				<rect x="380.386" y="399.371" style="fill:#FFFAEF;" width="18.832" height="9.544"/>
				<path style="fill:#FFFAEF;" d="M394.788,409.476c0,2.754-2.232,4.986-4.986,4.986c-2.754,0-4.986-2.232-4.986-4.986
					s2.232-4.986,4.986-4.986C392.556,404.489,394.788,406.722,394.788,409.476z"/>
				<path style="fill:#FFFAEF;" d="M405.607,368.027c0,3.134-2.543,5.676-5.676,5.676c-3.135,0-5.676-2.542-5.676-5.676
					c0-3.135,2.541-5.675,5.676-5.675C403.064,362.353,405.607,364.893,405.607,368.027z"/>
				<rect x="380.386" y="401.822" style="fill:#CBC2B2;" width="18.832" height="2.321"/>
				<rect x="380.386" y="406.595" style="fill:#CBC2B2;" width="18.832" height="2.32"/>
			</g>
		</g>
		<g>
			<path style="fill:#E4BC67;" d="M118.25,250.652c0,26.229-21.263,47.494-47.493,47.494c-26.229,0-47.492-21.265-47.492-47.494
				c0-26.229,21.263-47.491,47.492-47.491C96.987,203.161,118.25,224.424,118.25,250.652z"/>
			<g>
				<path style="fill:#773020;" d="M87.565,272.644c0,9.283-7.525,16.809-16.809,16.809c-9.282,0-16.808-7.525-16.808-16.809
					s7.525-16.808,16.808-16.808C80.04,255.836,87.565,263.36,87.565,272.644z"/>
				<path style="fill:#637B36;" d="M72.768,259.048c0,1.394-0.807,2.524-1.803,2.524l0,0c-0.995,0-1.803-1.131-1.803-2.524v-19.944
					c0-1.396,0.808-2.526,1.803-2.526l0,0c0.996,0,1.803,1.131,1.803,2.526V259.048z"/>
				<path style="fill:#637B36;" d="M72.768,250.077c0,1.395-0.807,2.526-1.803,2.526l0,0c-0.995,0-1.803-1.131-1.803-2.526v-19.943
					c0-1.395,0.808-2.526,1.803-2.526l0,0c0.996,0,1.803,1.132,1.803,2.526V250.077z"/>
				<path style="fill:#883827;" d="M88.535,259.351c0,1.941-1.574,3.516-3.515,3.516H56.495c-1.941,0-3.516-1.574-3.516-3.516l0,0
					c0-1.94,1.574-3.515,3.516-3.515h28.525C86.961,255.836,88.535,257.41,88.535,259.351L88.535,259.351z"/>
				<path style="fill:#637B36;" d="M58.063,236.908c-0.001,0-0.002,0-0.003-0.001c-0.002,0-0.004-0.001-0.005-0.001
					c-0.027-0.005-0.055,0.003-0.082,0.001c-0.063-0.004-0.127-0.009-0.191,0.002c-0.064,0.01-0.125,0.034-0.187,0.06
					c-0.023,0.009-0.05,0.011-0.072,0.022c-0.002,0.001-0.003,0.002-0.004,0.002c-0.072,0.037-0.137,0.088-0.197,0.143
					c-0.008,0.007-0.018,0.012-0.026,0.019c-0.008,0.008-0.012,0.019-0.018,0.026c-0.056,0.061-0.107,0.125-0.144,0.198
					c0,0.001-0.001,0.001-0.001,0.002c-0.014,0.026-0.016,0.057-0.027,0.083c-0.021,0.059-0.046,0.115-0.056,0.178
					c-0.012,0.064-0.006,0.128-0.002,0.192c0.002,0.026-0.005,0.053,0,0.079c0,0.001,0,0.004,0,0.005
					c0.001,0.002,0.001,0.003,0.001,0.003c1.766,11.574,12.827,12.888,12.939,12.9c0.07,0.006,0.14,0.004,0.208-0.005
					c0.008-0.002,0.014-0.004,0.021-0.005c0.075-0.012,0.147-0.034,0.216-0.064c0.01-0.004,0.021-0.004,0.031-0.009
					c0.01-0.005,0.017-0.014,0.026-0.019c0.078-0.041,0.152-0.089,0.217-0.153l0,0l0.001-0.001l0,0c0-0.001,0-0.001,0-0.001
					c0.063-0.063,0.112-0.138,0.153-0.216c0.005-0.011,0.015-0.017,0.019-0.027c0.005-0.01,0.005-0.021,0.01-0.03
					c0.029-0.068,0.053-0.141,0.063-0.216c0.001-0.006,0.005-0.014,0.005-0.02c0.01-0.068,0.012-0.138,0.004-0.209
					C70.948,249.735,69.637,238.673,58.063,236.908z"/>
				<path style="fill:#637B36;" d="M83.451,236.908c0.001,0,0.002,0,0.003-0.001c0.002,0,0.004-0.001,0.005-0.001
					c0.027-0.005,0.055,0.003,0.082,0.001c0.063-0.004,0.127-0.009,0.19,0.002c0.066,0.01,0.126,0.034,0.188,0.06
					c0.023,0.009,0.05,0.011,0.073,0.022c0.001,0.001,0.001,0.002,0.002,0.002c0.073,0.037,0.138,0.088,0.198,0.143
					c0.008,0.007,0.019,0.012,0.026,0.019c0.007,0.008,0.012,0.019,0.019,0.026c0.057,0.061,0.106,0.125,0.144,0.198
					c0,0.001,0.001,0.001,0.001,0.002c0.014,0.026,0.017,0.057,0.027,0.083c0.022,0.059,0.046,0.115,0.056,0.178
					c0.011,0.064,0.006,0.128,0.003,0.192c-0.003,0.026,0.004,0.053,0,0.079c0,0.001-0.001,0.004-0.001,0.005
					c-0.001,0.002-0.001,0.003-0.001,0.003c-1.766,11.574-12.827,12.888-12.939,12.9c-0.072,0.006-0.142,0.004-0.209-0.005
					c-0.007-0.002-0.014-0.004-0.021-0.005c-0.074-0.012-0.146-0.034-0.215-0.064c-0.011-0.004-0.021-0.004-0.03-0.009
					c-0.011-0.005-0.017-0.014-0.027-0.019c-0.078-0.041-0.152-0.089-0.216-0.153h-0.001l-0.001-0.001l0,0c0-0.001,0-0.001,0-0.001
					c-0.063-0.063-0.112-0.138-0.153-0.216c-0.006-0.011-0.014-0.017-0.018-0.027c-0.006-0.01-0.006-0.021-0.01-0.03
					c-0.029-0.068-0.053-0.141-0.063-0.216c-0.002-0.006-0.004-0.014-0.005-0.02c-0.01-0.068-0.012-0.138-0.004-0.209
					C70.565,249.735,71.878,238.673,83.451,236.908z"/>
				<path style="fill:#FFFAEF;" d="M67.811,235.001c-2.104,2.103-5.512,2.101-7.614-0.001l0,0c-2.102-2.102-2.101-5.509,0.002-7.61
					l13.955-13.957c2.102-2.101,5.509-2.103,7.61,0l0,0c2.103,2.102,2.104,5.51,0.001,7.612L67.811,235.001z"/>
				<path style="fill:#FFFAEF;" d="M60.198,221.045c-2.102-2.102-2.102-5.512,0-7.612l0,0c2.103-2.103,5.511-2.101,7.612,0
					l13.956,13.957c2.101,2.102,2.102,5.511,0,7.611l0,0c-2.102,2.103-5.511,2.101-7.612-0.001L60.198,221.045z"/>
				<path style="fill:#DB9C32;" d="M73.508,227.007c-1.755,1.755-4.6,1.755-6.354,0c-1.755-1.755-1.755-4.599,0-6.354
					c1.755-1.754,4.6-1.754,6.354,0C75.263,222.408,75.263,225.252,73.508,227.007z"/>
			</g>
		</g>
		<g>
			<path style="fill:#E4BC67;" d="M381.751,249.345c0,26.229,21.264,47.494,47.494,47.494c26.229,0,47.49-21.265,47.49-47.494
				s-21.262-47.491-47.49-47.491C403.015,201.854,381.751,223.115,381.751,249.345z"/>
			<g>
				<path style="fill:#717B7C;" d="M416.685,232.767c-2.641-2.641-2.641-6.921,0-9.562l0,0c2.641-2.641,6.922-2.641,9.56,0
					l17.211,17.21c2.641,2.641,2.641,6.922-0.002,9.563l0,0c-2.639,2.64-6.92,2.64-9.561,0L416.685,232.767z"/>
				<path style="fill:#FFFAEF;" d="M459.968,250.255c0,4.196-3.402,7.599-7.6,7.599h-43.246c-4.197,0-7.6-3.402-7.6-7.599v-2.531
					c0-4.196,3.402-7.599,7.6-7.599h43.246c4.197,0,7.6,3.402,7.6,7.599V250.255z"/>
				<path style="fill:#FFFAEF;" d="M468.683,251.844c0,3.319-2.691,6.01-6.01,6.01h-18.631c-3.318,0-6.01-2.69-6.01-6.01l0,0
					c0-3.319,2.691-6.01,6.01-6.01h18.631C465.991,245.834,468.683,248.524,468.683,251.844L468.683,251.844z"/>
				<path style="fill:#FFFAEF;" d="M408.134,250.566c0,2.945-2.389,5.334-5.334,5.334l0,0c-2.945,0-5.334-2.389-5.334-5.334v-13.61
					c0-2.945,2.389-5.334,5.334-5.334l0,0c2.945,0,5.334,2.389,5.334,5.334V250.566z"/>
				<path style="fill:#FFFAEF;" d="M389.804,252.295c0-3.07,2.488-5.559,5.559-5.559h11.721c3.068,0,5.559,2.489,5.559,5.559l0,0
					c0,3.07-2.49,5.559-5.559,5.559h-11.721C392.292,257.853,389.804,255.365,389.804,252.295L389.804,252.295z"/>
				<path style="fill:#FFFAEF;" d="M426.245,275.488c-2.639,2.64-6.92,2.64-9.56,0l0,0c-2.641-2.64-2.641-6.923,0-9.561
					l17.209-17.212c2.641-2.64,6.922-2.64,9.563,0.001l0,0c2.641,2.64,2.641,6.921,0,9.561L426.245,275.488z"/>
				<path style="fill:#717B7C;" d="M454.108,245.298c0,0.996-0.063,1.803-0.137,1.803h-3.184c-0.074,0-0.135-0.807-0.135-1.803l0,0
					c0-0.995,0.061-1.803,0.135-1.803h3.184C454.046,243.495,454.108,244.303,454.108,245.298L454.108,245.298z"/>
				<path style="fill:#717B7C;" d="M448.249,245.298c0,0.996-0.063,1.803-0.137,1.803h-3.184c-0.074,0-0.135-0.807-0.135-1.803l0,0
					c0-0.995,0.061-1.803,0.135-1.803h3.184C448.186,243.495,448.249,244.303,448.249,245.298L448.249,245.298z"/>
				<path style="fill:#717B7C;" d="M441.931,245.298c0,0.996-0.061,1.803-0.135,1.803h-3.186c-0.074,0-0.135-0.807-0.135-1.803l0,0
					c0-0.995,0.061-1.803,0.135-1.803h3.186C441.87,243.495,441.931,244.303,441.931,245.298L441.931,245.298z"/>
				<path style="fill:#717B7C;" d="M436.071,245.298c0,0.996-0.061,1.803-0.135,1.803h-3.186c-0.074,0-0.135-0.807-0.135-1.803l0,0
					c0-0.995,0.061-1.803,0.135-1.803h3.186C436.011,243.495,436.071,244.303,436.071,245.298L436.071,245.298z"/>
				<path style="fill:#717B7C;" d="M429.624,245.298c0,0.996-0.059,1.803-0.135,1.803h-3.186c-0.074,0-0.135-0.807-0.135-1.803l0,0
					c0-0.995,0.061-1.803,0.135-1.803h3.186C429.565,243.495,429.624,244.303,429.624,245.298L429.624,245.298z"/>
				<path style="fill:#717B7C;" d="M423.765,245.298c0,0.996-0.059,1.803-0.135,1.803h-3.186c-0.074,0-0.135-0.807-0.135-1.803l0,0
					c0-0.995,0.06-1.803,0.135-1.803h3.186C423.706,243.495,423.765,244.303,423.765,245.298L423.765,245.298z"/>
				<path style="fill:#717B7C;" d="M417.448,245.298c0,0.996-0.06,1.803-0.137,1.803h-3.184c-0.074,0-0.135-0.807-0.135-1.803l0,0
					c0-0.995,0.06-1.803,0.135-1.803h3.184C417.388,243.495,417.448,244.303,417.448,245.298L417.448,245.298z"/>
				<path style="fill:#717B7C;" d="M411.589,245.298c0,0.996-0.061,1.803-0.137,1.803h-3.184c-0.074,0-0.135-0.807-0.135-1.803l0,0
					c0-0.995,0.061-1.803,0.135-1.803h3.184C411.528,243.495,411.589,244.303,411.589,245.298L411.589,245.298z"/>
			</g>
		</g>
	</g>
</g>
<g id="DESIGNED_BY_FREEPIK_1_">
	<g>
		<g>
			<g>
				<path style="fill:#454F56;" d="M180.308,483.928v-0.16c-0.218,0.249-0.432,0.452-0.644,0.608
					c-0.212,0.156-0.441,0.275-0.689,0.356c-0.247,0.082-0.517,0.122-0.81,0.122c-0.388,0-0.747-0.082-1.078-0.246
					c-0.33-0.164-0.616-0.399-0.857-0.704c-0.243-0.305-0.425-0.662-0.549-1.074c-0.125-0.412-0.188-0.856-0.188-1.335
					c0-1.014,0.248-1.804,0.742-2.37c0.495-0.564,1.146-0.848,1.953-0.848c0.467,0,0.86,0.08,1.181,0.239
					c0.321,0.161,0.633,0.408,0.938,0.739v-2.392c0-0.333,0.066-0.584,0.199-0.754c0.132-0.171,0.321-0.255,0.567-0.255
					c0.245,0,0.434,0.078,0.566,0.234c0.133,0.156,0.199,0.386,0.199,0.691v7.146c0,0.31-0.071,0.541-0.213,0.695
					c-0.142,0.153-0.326,0.231-0.552,0.231c-0.222,0-0.405-0.08-0.549-0.24C180.38,484.453,180.308,484.225,180.308,483.928z
					 M177.12,481.548c0,0.439,0.068,0.813,0.205,1.122c0.137,0.309,0.324,0.541,0.561,0.697c0.237,0.156,0.497,0.235,0.777,0.235
					c0.285,0,0.545-0.075,0.781-0.224c0.236-0.147,0.424-0.376,0.564-0.682c0.141-0.307,0.211-0.691,0.211-1.149
					c0-0.432-0.07-0.803-0.211-1.114c-0.14-0.31-0.33-0.547-0.57-0.712c-0.239-0.163-0.502-0.245-0.786-0.245
					c-0.297,0-0.562,0.084-0.796,0.252c-0.233,0.168-0.414,0.409-0.542,0.724C177.184,480.768,177.12,481.132,177.12,481.548z"/>
				<path style="fill:#454F56;" d="M187.454,481.958h-3.169c0.004,0.367,0.078,0.692,0.223,0.973
					c0.144,0.281,0.337,0.493,0.576,0.636c0.24,0.143,0.504,0.213,0.792,0.213c0.194,0,0.371-0.022,0.531-0.067
					c0.161-0.046,0.315-0.116,0.466-0.214c0.151-0.097,0.289-0.201,0.416-0.313c0.126-0.11,0.29-0.262,0.493-0.451
					c0.083-0.07,0.202-0.107,0.356-0.107c0.166,0,0.3,0.046,0.403,0.137c0.103,0.092,0.155,0.22,0.155,0.386
					c0,0.147-0.058,0.317-0.172,0.514c-0.115,0.195-0.288,0.384-0.52,0.563c-0.232,0.181-0.523,0.329-0.874,0.448
					c-0.35,0.119-0.753,0.179-1.208,0.179c-1.04,0-1.85-0.298-2.427-0.891c-0.578-0.594-0.867-1.399-0.867-2.416
					c0-0.479,0.071-0.924,0.214-1.332c0.143-0.41,0.351-0.762,0.623-1.055c0.273-0.293,0.609-0.517,1.01-0.674
					c0.399-0.156,0.843-0.233,1.329-0.233c0.633,0,1.176,0.133,1.629,0.4c0.454,0.267,0.794,0.612,1.019,1.035
					c0.225,0.424,0.338,0.855,0.338,1.294c0,0.408-0.117,0.672-0.35,0.793C188.207,481.896,187.878,481.958,187.454,481.958z
					 M184.284,481.037h2.938c-0.039-0.554-0.189-0.969-0.448-1.243c-0.26-0.275-0.6-0.413-1.023-0.413
					c-0.404,0-0.736,0.14-0.995,0.418C184.497,480.078,184.34,480.491,184.284,481.037z"/>
				<path style="fill:#454F56;" d="M194.838,482.734c0,0.447-0.109,0.831-0.327,1.149c-0.217,0.318-0.539,0.561-0.965,0.725
					c-0.425,0.164-0.942,0.246-1.552,0.246c-0.581,0-1.081-0.09-1.496-0.268c-0.415-0.178-0.722-0.401-0.919-0.667
					c-0.198-0.268-0.297-0.535-0.297-0.806c0-0.178,0.063-0.33,0.19-0.456c0.126-0.127,0.287-0.189,0.481-0.189
					c0.169,0,0.3,0.041,0.391,0.124c0.091,0.083,0.179,0.2,0.261,0.35c0.166,0.29,0.366,0.504,0.597,0.648
					c0.231,0.142,0.547,0.214,0.947,0.214c0.324,0,0.59-0.072,0.799-0.217c0.207-0.146,0.311-0.309,0.311-0.496
					c0-0.285-0.107-0.492-0.324-0.622c-0.216-0.131-0.571-0.256-1.065-0.375c-0.558-0.139-1.012-0.284-1.362-0.437
					c-0.351-0.151-0.63-0.353-0.84-0.602c-0.21-0.25-0.315-0.557-0.315-0.921c0-0.324,0.097-0.631,0.291-0.92
					c0.194-0.288,0.48-0.52,0.858-0.692c0.377-0.173,0.833-0.259,1.368-0.259c0.419,0,0.796,0.044,1.13,0.132
					c0.335,0.086,0.615,0.203,0.837,0.35c0.224,0.146,0.394,0.309,0.51,0.486c0.117,0.178,0.175,0.352,0.175,0.522
					c0,0.186-0.063,0.339-0.187,0.458c-0.124,0.117-0.301,0.178-0.532,0.178c-0.166,0-0.308-0.048-0.424-0.143
					c-0.117-0.095-0.25-0.236-0.4-0.427c-0.123-0.158-0.267-0.285-0.434-0.38c-0.166-0.096-0.392-0.143-0.677-0.143
					c-0.293,0-0.536,0.062-0.73,0.188c-0.194,0.124-0.291,0.279-0.291,0.465c0,0.171,0.071,0.311,0.213,0.419
					c0.143,0.109,0.335,0.199,0.576,0.27c0.242,0.071,0.573,0.157,0.997,0.261c0.503,0.123,0.913,0.27,1.231,0.44
					c0.318,0.17,0.56,0.371,0.725,0.602C194.756,482.174,194.838,482.438,194.838,482.734z"/>
				<path style="fill:#454F56;" d="M196.494,477.512c-0.225,0-0.418-0.069-0.579-0.208c-0.16-0.138-0.241-0.334-0.241-0.588
					c0-0.23,0.082-0.418,0.247-0.567c0.164-0.148,0.355-0.223,0.573-0.223c0.21,0,0.396,0.067,0.558,0.202
					c0.163,0.135,0.244,0.33,0.244,0.588c0,0.249-0.08,0.444-0.238,0.585C196.899,477.44,196.711,477.512,196.494,477.512z
					 M197.295,479.186v4.683c0,0.325-0.078,0.571-0.232,0.737c-0.154,0.166-0.35,0.249-0.588,0.249c-0.237,0-0.43-0.085-0.578-0.256
					c-0.149-0.17-0.223-0.413-0.223-0.73v-4.636c0-0.32,0.074-0.561,0.223-0.725c0.148-0.162,0.341-0.243,0.578-0.243
					c0.238,0,0.434,0.081,0.588,0.243C197.218,478.671,197.295,478.896,197.295,479.186z"/>
				<path style="fill:#454F56;" d="M204.395,479.452v4.707c0,0.539-0.058,1.002-0.173,1.39c-0.114,0.388-0.298,0.709-0.552,0.962
					c-0.253,0.253-0.584,0.441-0.994,0.563c-0.41,0.123-0.919,0.184-1.529,0.184c-0.558,0-1.057-0.078-1.496-0.234
					c-0.439-0.156-0.777-0.357-1.015-0.605c-0.237-0.247-0.356-0.501-0.356-0.763c0-0.197,0.068-0.359,0.203-0.483
					c0.134-0.125,0.297-0.188,0.487-0.188c0.237,0,0.445,0.105,0.623,0.314c0.086,0.107,0.177,0.216,0.27,0.324
					c0.094,0.109,0.197,0.202,0.309,0.279c0.113,0.076,0.249,0.134,0.406,0.172c0.159,0.037,0.341,0.057,0.546,0.057
					c0.42,0,0.745-0.059,0.977-0.176c0.231-0.116,0.394-0.28,0.487-0.49c0.093-0.209,0.147-0.434,0.163-0.673
					c0.016-0.24,0.028-0.624,0.036-1.155c-0.249,0.349-0.537,0.614-0.864,0.796c-0.326,0.183-0.715,0.273-1.166,0.273
					c-0.543,0-1.017-0.139-1.422-0.416c-0.405-0.277-0.717-0.665-0.935-1.163c-0.218-0.499-0.327-1.074-0.327-1.728
					c0-0.486,0.066-0.927,0.199-1.317c0.133-0.393,0.322-0.723,0.567-0.992c0.245-0.27,0.528-0.472,0.849-0.608
					c0.32-0.136,0.672-0.204,1.056-0.204c0.459,0,0.857,0.088,1.193,0.264c0.336,0.177,0.649,0.452,0.939,0.828v-0.22
					c0-0.281,0.069-0.498,0.207-0.653c0.139-0.154,0.317-0.231,0.535-0.231c0.313,0,0.52,0.103,0.622,0.306
					C204.343,478.774,204.395,479.068,204.395,479.452z M199.699,481.506c0,0.657,0.143,1.154,0.43,1.49
					c0.287,0.337,0.658,0.505,1.113,0.505c0.269,0,0.523-0.072,0.762-0.217c0.24-0.145,0.435-0.362,0.585-0.653
					c0.15-0.291,0.226-0.644,0.226-1.06c0-0.66-0.145-1.175-0.437-1.543c-0.291-0.368-0.674-0.552-1.149-0.552
					c-0.463,0-0.834,0.176-1.113,0.528C199.838,480.356,199.699,480.857,199.699,481.506z"/>
				<path style="fill:#454F56;" d="M206.97,479.161v0.196c0.285-0.376,0.596-0.652,0.935-0.828c0.338-0.176,0.727-0.265,1.167-0.265
					c0.428,0,0.809,0.094,1.146,0.279c0.335,0.187,0.588,0.449,0.753,0.789c0.107,0.198,0.176,0.412,0.208,0.642
					c0.032,0.23,0.048,0.523,0.048,0.879v3.015c0,0.325-0.074,0.571-0.223,0.737c-0.148,0.166-0.341,0.249-0.579,0.249
					c-0.242,0-0.437-0.085-0.588-0.256c-0.15-0.17-0.225-0.413-0.225-0.73v-2.7c0-0.534-0.075-0.943-0.223-1.226
					c-0.149-0.283-0.444-0.425-0.888-0.425c-0.288,0-0.552,0.086-0.789,0.258c-0.237,0.173-0.412,0.409-0.523,0.71
					c-0.079,0.241-0.119,0.692-0.119,1.353v2.03c0,0.329-0.077,0.576-0.228,0.74c-0.153,0.164-0.349,0.246-0.591,0.246
					c-0.234,0-0.426-0.085-0.576-0.256c-0.15-0.17-0.226-0.413-0.226-0.73v-4.683c0-0.31,0.067-0.54,0.202-0.692
					c0.135-0.152,0.319-0.229,0.552-0.229c0.143,0,0.271,0.034,0.387,0.102c0.114,0.067,0.206,0.168,0.275,0.302
					C206.936,478.803,206.97,478.968,206.97,479.161z"/>
				<path style="fill:#454F56;" d="M216.829,481.958h-3.169c0.004,0.367,0.078,0.692,0.223,0.973
					c0.144,0.281,0.336,0.493,0.576,0.636c0.239,0.143,0.503,0.213,0.792,0.213c0.194,0,0.371-0.022,0.532-0.067
					c0.16-0.046,0.315-0.116,0.466-0.214c0.149-0.097,0.288-0.201,0.416-0.313c0.125-0.11,0.29-0.262,0.492-0.451
					c0.083-0.07,0.202-0.107,0.356-0.107c0.166,0,0.301,0.046,0.403,0.137c0.103,0.092,0.155,0.22,0.155,0.386
					c0,0.147-0.058,0.317-0.172,0.514c-0.115,0.195-0.288,0.384-0.52,0.563c-0.231,0.181-0.522,0.329-0.872,0.448
					c-0.351,0.119-0.753,0.179-1.208,0.179c-1.04,0-1.85-0.298-2.429-0.891c-0.577-0.594-0.866-1.399-0.866-2.416
					c0-0.479,0.072-0.924,0.214-1.332c0.142-0.41,0.351-0.762,0.624-1.055c0.273-0.293,0.609-0.517,1.009-0.674
					c0.399-0.156,0.843-0.233,1.33-0.233c0.633,0,1.175,0.133,1.628,0.4c0.454,0.267,0.793,0.612,1.019,1.035
					c0.225,0.424,0.338,0.855,0.338,1.294c0,0.408-0.116,0.672-0.35,0.793C217.582,481.896,217.253,481.958,216.829,481.958z
					 M213.66,481.037h2.938c-0.039-0.554-0.189-0.969-0.448-1.243c-0.259-0.275-0.601-0.413-1.024-0.413
					c-0.404,0-0.736,0.14-0.995,0.418C213.872,480.078,213.715,480.491,213.66,481.037z"/>
				<path style="fill:#454F56;" d="M223.435,483.928v-0.16c-0.217,0.249-0.432,0.452-0.644,0.608
					c-0.212,0.156-0.44,0.275-0.689,0.356c-0.247,0.082-0.517,0.122-0.809,0.122c-0.389,0-0.747-0.082-1.078-0.246
					c-0.331-0.164-0.616-0.399-0.858-0.704c-0.242-0.305-0.424-0.662-0.549-1.074c-0.125-0.412-0.188-0.856-0.188-1.335
					c0-1.014,0.247-1.804,0.742-2.37c0.495-0.564,1.145-0.848,1.953-0.848c0.467,0,0.861,0.08,1.181,0.239
					c0.32,0.161,0.633,0.408,0.938,0.739v-2.392c0-0.333,0.066-0.584,0.2-0.754c0.132-0.171,0.321-0.255,0.567-0.255
					c0.245,0,0.434,0.078,0.566,0.234c0.132,0.156,0.199,0.386,0.199,0.691v7.146c0,0.31-0.07,0.541-0.213,0.695
					c-0.142,0.153-0.326,0.231-0.552,0.231c-0.222,0-0.405-0.08-0.549-0.24C223.508,484.453,223.435,484.225,223.435,483.928z
					 M220.248,481.548c0,0.439,0.067,0.813,0.204,1.122c0.137,0.309,0.324,0.541,0.562,0.697c0.237,0.156,0.496,0.235,0.777,0.235
					c0.285,0,0.545-0.075,0.78-0.224c0.236-0.147,0.424-0.376,0.564-0.682c0.141-0.307,0.212-0.691,0.212-1.149
					c0-0.432-0.07-0.803-0.212-1.114c-0.14-0.31-0.33-0.547-0.569-0.712c-0.24-0.163-0.502-0.245-0.787-0.245
					c-0.297,0-0.563,0.084-0.795,0.252c-0.233,0.168-0.415,0.409-0.544,0.724C220.312,480.768,220.248,481.132,220.248,481.548z"/>
				<path style="fill:#454F56;" d="M230.059,476.781v2.475c0.305-0.316,0.615-0.559,0.932-0.727
					c0.316-0.168,0.708-0.252,1.176-0.252c0.538,0,1.009,0.127,1.416,0.382c0.404,0.256,0.719,0.626,0.943,1.11
					c0.224,0.484,0.336,1.06,0.336,1.726c0,0.49-0.063,0.94-0.188,1.35c-0.124,0.409-0.306,0.765-0.543,1.065
					c-0.237,0.301-0.525,0.534-0.864,0.698c-0.338,0.164-0.711,0.246-1.119,0.246c-0.249,0-0.484-0.029-0.704-0.09
					c-0.22-0.059-0.407-0.137-0.561-0.234c-0.154-0.096-0.286-0.196-0.395-0.3c-0.108-0.102-0.252-0.257-0.43-0.463v0.16
					c0,0.305-0.073,0.536-0.22,0.692c-0.146,0.156-0.332,0.234-0.558,0.234c-0.229,0-0.413-0.078-0.549-0.234
					c-0.137-0.156-0.205-0.388-0.205-0.692v-7.076c0-0.328,0.066-0.576,0.198-0.744c0.132-0.168,0.318-0.252,0.556-0.252
					c0.249,0,0.441,0.08,0.576,0.239C229.991,476.256,230.059,476.483,230.059,476.781z M230.136,481.596
					c0,0.645,0.147,1.14,0.442,1.486c0.295,0.347,0.682,0.52,1.16,0.52c0.408,0,0.759-0.177,1.054-0.532
					c0.294-0.354,0.442-0.861,0.442-1.522c0-0.427-0.061-0.796-0.184-1.104c-0.124-0.309-0.297-0.547-0.523-0.715
					c-0.226-0.168-0.489-0.252-0.79-0.252c-0.308,0-0.584,0.084-0.825,0.252c-0.241,0.168-0.431,0.411-0.57,0.729
					C230.206,480.776,230.136,481.156,230.136,481.596z"/>
				<path style="fill:#454F56;" d="M236.963,485.057l0.148-0.363l-1.995-5.021c-0.123-0.288-0.185-0.499-0.185-0.63
					c0-0.138,0.036-0.267,0.107-0.385c0.071-0.119,0.169-0.214,0.293-0.285c0.126-0.072,0.254-0.107,0.39-0.107
					c0.233,0,0.409,0.074,0.528,0.223c0.119,0.148,0.224,0.361,0.314,0.638l1.372,3.989l1.3-3.71c0.103-0.3,0.195-0.536,0.279-0.706
					c0.083-0.171,0.171-0.285,0.264-0.344c0.093-0.06,0.225-0.09,0.395-0.09c0.124,0,0.241,0.032,0.354,0.099
					c0.113,0.065,0.2,0.153,0.261,0.264c0.061,0.111,0.092,0.228,0.092,0.35c-0.017,0.075-0.042,0.183-0.078,0.321
					c-0.036,0.138-0.079,0.28-0.13,0.421l-2.114,5.533c-0.183,0.486-0.36,0.868-0.535,1.146c-0.174,0.276-0.404,0.49-0.691,0.638
					c-0.287,0.149-0.674,0.223-1.161,0.223c-0.475,0-0.831-0.051-1.068-0.153c-0.238-0.104-0.357-0.292-0.357-0.565
					c0-0.185,0.056-0.33,0.17-0.431c0.112-0.101,0.28-0.151,0.501-0.151c0.087,0,0.172,0.012,0.255,0.036
					c0.103,0.023,0.192,0.035,0.267,0.035c0.186,0,0.333-0.027,0.44-0.083c0.106-0.056,0.202-0.151,0.288-0.288
					C236.753,485.522,236.852,485.321,236.963,485.057z"/>
			</g>
			<g>
				<path style="fill:#454F56;" d="M260.439,478.405h0.387v-0.486c0-0.509,0.061-0.911,0.191-1.211
					c0.127-0.3,0.348-0.517,0.654-0.653c0.307-0.136,0.727-0.204,1.26-0.204c0.95,0,1.421,0.229,1.421,0.696
					c0,0.149-0.05,0.278-0.15,0.385c-0.097,0.105-0.214,0.16-0.349,0.16c-0.063,0-0.174-0.012-0.329-0.037
					c-0.148-0.021-0.283-0.035-0.39-0.035c-0.292,0-0.479,0.088-0.565,0.26c-0.08,0.172-0.122,0.418-0.122,0.74v0.386h0.396
					c0.619,0,0.926,0.185,0.926,0.56c0,0.262-0.079,0.432-0.245,0.503c-0.164,0.071-0.391,0.106-0.681,0.106h-0.396v4.295
					c0,0.319-0.075,0.563-0.232,0.729c-0.15,0.171-0.346,0.254-0.589,0.254c-0.229,0-0.419-0.083-0.573-0.254
					c-0.153-0.167-0.227-0.41-0.227-0.729v-4.295h-0.446c-0.243,0-0.427-0.052-0.559-0.163c-0.131-0.106-0.196-0.25-0.196-0.424
					C259.625,478.598,259.896,478.405,260.439,478.405"/>
				<path style="fill:#454F56;" d="M265.745,482.514v1.355c0,0.327-0.083,0.574-0.233,0.737c-0.154,0.166-0.35,0.246-0.586,0.246
					c-0.239,0-0.43-0.081-0.579-0.25c-0.149-0.165-0.226-0.41-0.226-0.733v-4.515c0-0.729,0.263-1.093,0.788-1.093
					c0.27,0,0.464,0.084,0.583,0.255c0.119,0.171,0.185,0.421,0.199,0.755c0.191-0.334,0.39-0.584,0.592-0.755
					c0.208-0.171,0.477-0.255,0.818-0.255c0.344,0,0.671,0.084,0.991,0.255c0.322,0.171,0.482,0.398,0.482,0.679
					c0,0.196-0.069,0.362-0.204,0.488c-0.138,0.13-0.284,0.194-0.441,0.194c-0.063,0-0.207-0.039-0.433-0.112
					c-0.229-0.07-0.431-0.108-0.602-0.108c-0.237,0-0.433,0.064-0.583,0.187c-0.151,0.128-0.269,0.311-0.353,0.555
					c-0.08,0.246-0.137,0.54-0.17,0.877C265.76,481.614,265.745,482.027,265.745,482.514"/>
				<path style="fill:#454F56;" d="M273.195,481.956h-3.171c0.006,0.367,0.077,0.694,0.222,0.975
					c0.147,0.278,0.338,0.491,0.578,0.635c0.24,0.143,0.502,0.213,0.793,0.213c0.193,0,0.37-0.021,0.53-0.069
					c0.159-0.044,0.315-0.116,0.466-0.214c0.151-0.095,0.288-0.198,0.415-0.313c0.127-0.108,0.292-0.26,0.494-0.449
					c0.084-0.07,0.202-0.108,0.355-0.108c0.167,0,0.301,0.047,0.405,0.139c0.103,0.092,0.152,0.219,0.152,0.386
					c0,0.148-0.056,0.317-0.167,0.512c-0.117,0.198-0.29,0.386-0.522,0.566c-0.234,0.179-0.524,0.33-0.874,0.446
					c-0.35,0.119-0.754,0.179-1.207,0.179c-1.044,0-1.853-0.295-2.429-0.889c-0.578-0.595-0.87-1.401-0.87-2.417
					c0-0.48,0.073-0.924,0.217-1.334c0.141-0.412,0.349-0.761,0.625-1.055c0.272-0.295,0.605-0.518,1.008-0.674
					c0.398-0.156,0.841-0.234,1.329-0.234c0.632,0,1.176,0.134,1.63,0.403c0.452,0.265,0.796,0.61,1.018,1.034
					c0.226,0.426,0.339,0.855,0.339,1.297c0,0.404-0.118,0.668-0.35,0.791C273.947,481.895,273.619,481.956,273.195,481.956
					 M270.024,481.034h2.939c-0.039-0.553-0.186-0.968-0.446-1.241c-0.262-0.276-0.6-0.412-1.025-0.412
					c-0.403,0-0.735,0.137-0.995,0.418C270.237,480.077,270.079,480.489,270.024,481.034"/>
				<path style="fill:#454F56;" d="M279.938,481.956h-3.171c0.004,0.367,0.078,0.694,0.222,0.975
					c0.145,0.278,0.337,0.491,0.576,0.635c0.239,0.143,0.503,0.213,0.794,0.213c0.192,0,0.371-0.021,0.528-0.069
					c0.162-0.044,0.316-0.116,0.469-0.214c0.151-0.095,0.287-0.198,0.415-0.313c0.124-0.108,0.29-0.26,0.492-0.449
					c0.085-0.07,0.204-0.108,0.355-0.108c0.168,0,0.302,0.047,0.406,0.139c0.104,0.092,0.15,0.219,0.15,0.386
					c0,0.148-0.054,0.317-0.171,0.512c-0.11,0.198-0.284,0.386-0.519,0.566c-0.231,0.179-0.525,0.33-0.872,0.446
					c-0.349,0.119-0.755,0.179-1.209,0.179c-1.042,0-1.85-0.295-2.43-0.889c-0.577-0.595-0.868-1.401-0.868-2.417
					c0-0.48,0.073-0.924,0.218-1.334c0.142-0.412,0.349-0.761,0.622-1.055c0.272-0.295,0.608-0.518,1.009-0.674
					c0.399-0.156,0.845-0.234,1.331-0.234c0.631,0,1.174,0.134,1.634,0.403c0.449,0.265,0.791,0.61,1.013,1.034
					c0.225,0.426,0.341,0.855,0.341,1.297c0,0.404-0.12,0.668-0.352,0.791C280.688,481.895,280.36,481.956,279.938,481.956
					 M276.767,481.034h2.939c-0.039-0.553-0.19-0.968-0.446-1.241c-0.264-0.276-0.602-0.412-1.027-0.412
					c-0.403,0-0.734,0.137-0.995,0.418C276.978,480.077,276.819,480.489,276.767,481.034"/>
				<path style="fill:#454F56;" d="M283.487,479.174v0.193c0.304-0.375,0.622-0.65,0.953-0.827c0.324-0.178,0.698-0.267,1.114-0.267
					c0.496,0,0.959,0.13,1.379,0.386c0.419,0.259,0.749,0.635,0.993,1.129c0.243,0.497,0.366,1.081,0.366,1.759
					c0,0.497-0.07,0.957-0.21,1.375c-0.14,0.418-0.336,0.768-0.581,1.051c-0.245,0.281-0.534,0.501-0.868,0.653
					c-0.339,0.15-0.694,0.227-1.079,0.227c-0.462,0-0.853-0.093-1.166-0.279c-0.315-0.183-0.614-0.458-0.901-0.816v2.433
					c0,0.71-0.26,1.068-0.777,1.068c-0.307,0-0.505-0.092-0.607-0.274c-0.095-0.187-0.146-0.452-0.146-0.807v-6.996
					c0-0.31,0.066-0.537,0.2-0.692c0.134-0.149,0.319-0.228,0.553-0.228c0.23,0,0.416,0.078,0.56,0.233
					C283.417,478.654,283.487,478.877,283.487,479.174 M286.665,481.528c0-0.428-0.066-0.796-0.196-1.102
					c-0.131-0.308-0.313-0.542-0.542-0.705c-0.229-0.164-0.488-0.248-0.77-0.248c-0.446,0-0.824,0.178-1.131,0.527
					c-0.308,0.355-0.462,0.872-0.462,1.559c0,0.642,0.152,1.145,0.46,1.504c0.304,0.358,0.679,0.536,1.133,0.536
					c0.268,0,0.519-0.078,0.748-0.232c0.231-0.158,0.415-0.392,0.552-0.704C286.596,482.35,286.665,481.971,286.665,481.528"/>
				<path style="fill:#454F56;" d="M289.925,477.508c-0.227,0-0.418-0.072-0.577-0.21c-0.162-0.139-0.242-0.333-0.242-0.585
					c0-0.23,0.082-0.419,0.248-0.569c0.164-0.146,0.355-0.222,0.571-0.222c0.213,0,0.397,0.066,0.559,0.199
					c0.162,0.137,0.244,0.334,0.244,0.592c0,0.249-0.079,0.444-0.236,0.584C290.333,477.436,290.145,477.508,289.925,477.508
					 M290.728,479.182v4.688c0,0.322-0.077,0.567-0.231,0.732c-0.156,0.169-0.351,0.25-0.588,0.25c-0.238,0-0.428-0.083-0.58-0.254
					c-0.146-0.173-0.223-0.415-0.223-0.729v-4.643c0-0.318,0.076-0.559,0.223-0.721c0.152-0.166,0.342-0.245,0.58-0.245
					c0.237,0,0.432,0.079,0.588,0.245C290.65,478.669,290.728,478.895,290.728,479.182"/>
				<path style="fill:#454F56;" d="M295.952,484.113l-1.428-2.353l-0.88,0.83v1.291c0,0.311-0.083,0.551-0.248,0.718
					c-0.16,0.171-0.353,0.254-0.566,0.254c-0.249,0-0.446-0.081-0.588-0.25c-0.142-0.165-0.215-0.41-0.215-0.733v-6.915
					c0-0.358,0.071-0.632,0.207-0.82c0.14-0.19,0.341-0.283,0.596-0.283c0.25,0,0.445,0.086,0.594,0.257
					c0.146,0.17,0.221,0.422,0.221,0.752v3.933l1.822-1.914c0.227-0.234,0.396-0.4,0.518-0.486c0.118-0.087,0.262-0.13,0.431-0.13
					c0.204,0,0.371,0.065,0.51,0.193c0.132,0.128,0.2,0.291,0.2,0.482c0,0.237-0.222,0.556-0.659,0.951l-0.861,0.789l1.662,2.614
					c0.121,0.196,0.212,0.34,0.265,0.441c0.053,0.1,0.082,0.2,0.082,0.289c0,0.258-0.072,0.459-0.213,0.609
					c-0.141,0.147-0.328,0.221-0.554,0.221c-0.198,0-0.353-0.05-0.459-0.159C296.281,484.585,296.134,484.391,295.952,484.113"/>
				<path style="fill:#454F56;" d="M299.475,484.852c-0.245,0-0.455-0.078-0.634-0.237c-0.178-0.156-0.268-0.379-0.268-0.666
					c0-0.24,0.086-0.449,0.256-0.621c0.172-0.175,0.38-0.263,0.63-0.263c0.249,0,0.46,0.088,0.64,0.258
					c0.174,0.172,0.264,0.383,0.264,0.626c0,0.283-0.09,0.505-0.264,0.662C299.919,484.774,299.711,484.852,299.475,484.852"/>
				<path style="fill:#454F56;" d="M307.536,482.847c0,0.2-0.061,0.417-0.182,0.647c-0.12,0.231-0.306,0.448-0.554,0.656
					c-0.247,0.207-0.558,0.376-0.935,0.502c-0.376,0.126-0.8,0.191-1.269,0.191c-1.005,0-1.787-0.293-2.35-0.876
					c-0.559-0.584-0.841-1.368-0.841-2.35c0-0.667,0.128-1.254,0.388-1.765c0.254-0.509,0.627-0.905,1.113-1.184
					c0.486-0.28,1.072-0.419,1.746-0.419c0.421,0,0.805,0.061,1.157,0.185c0.351,0.122,0.646,0.282,0.891,0.474
					c0.242,0.197,0.429,0.402,0.556,0.621c0.13,0.219,0.192,0.425,0.192,0.616c0,0.192-0.07,0.357-0.214,0.492
					c-0.147,0.135-0.322,0.203-0.524,0.203c-0.137,0-0.248-0.036-0.338-0.104c-0.09-0.07-0.19-0.181-0.299-0.338
					c-0.198-0.3-0.404-0.526-0.623-0.675c-0.214-0.152-0.487-0.227-0.821-0.227c-0.476,0-0.864,0.186-1.158,0.56
					c-0.292,0.373-0.439,0.888-0.439,1.534c0,0.305,0.039,0.587,0.114,0.842c0.073,0.255,0.182,0.473,0.325,0.653
					c0.145,0.179,0.315,0.316,0.517,0.408c0.202,0.097,0.426,0.142,0.665,0.142c0.325,0,0.603-0.075,0.835-0.226
					c0.235-0.15,0.439-0.38,0.616-0.688c0.1-0.183,0.205-0.324,0.318-0.428c0.114-0.102,0.256-0.155,0.423-0.155
					c0.197,0,0.362,0.076,0.491,0.226C307.47,482.516,307.536,482.678,307.536,482.847"/>
				<path style="fill:#454F56;" d="M314.53,481.559c0,0.481-0.076,0.928-0.223,1.337c-0.154,0.407-0.37,0.758-0.656,1.049
					c-0.284,0.293-0.626,0.518-1.02,0.676c-0.399,0.154-0.844,0.234-1.337,0.234c-0.49,0-0.933-0.08-1.325-0.239
					c-0.39-0.156-0.732-0.385-1.017-0.677c-0.288-0.298-0.505-0.646-0.657-1.048c-0.144-0.402-0.219-0.847-0.219-1.332
					c0-0.491,0.077-0.941,0.224-1.349c0.151-0.409,0.368-0.758,0.649-1.046c0.282-0.288,0.621-0.511,1.02-0.669
					c0.402-0.155,0.843-0.233,1.325-0.233c0.49,0,0.936,0.078,1.337,0.238c0.398,0.157,0.739,0.385,1.027,0.675
					c0.286,0.297,0.502,0.644,0.649,1.045C314.455,480.627,314.53,481.07,314.53,481.559 M312.902,481.559
					c0-0.661-0.146-1.176-0.435-1.543c-0.29-0.372-0.682-0.555-1.172-0.555c-0.317,0-0.597,0.082-0.839,0.246
					c-0.242,0.164-0.426,0.406-0.556,0.728c-0.131,0.321-0.197,0.696-0.197,1.124c0,0.425,0.064,0.793,0.193,1.108
					c0.13,0.319,0.314,0.561,0.554,0.729c0.241,0.166,0.521,0.252,0.845,0.252c0.49,0,0.882-0.184,1.172-0.557
					C312.756,482.723,312.902,482.209,312.902,481.559"/>
				<path style="fill:#454F56;" d="M320.712,481.678v2.154c0,0.342-0.075,0.594-0.23,0.767c-0.156,0.171-0.356,0.256-0.61,0.256
					c-0.246,0-0.446-0.085-0.595-0.256c-0.154-0.173-0.233-0.425-0.233-0.767v-2.582c0-0.408-0.013-0.727-0.04-0.953
					c-0.028-0.221-0.105-0.409-0.227-0.552c-0.123-0.146-0.318-0.22-0.582-0.22c-0.531,0-0.879,0.182-1.048,0.551
					c-0.167,0.36-0.254,0.883-0.254,1.566v2.189c0,0.336-0.076,0.591-0.225,0.765c-0.155,0.171-0.354,0.258-0.603,0.258
					c-0.247,0-0.448-0.087-0.604-0.258c-0.157-0.174-0.235-0.429-0.235-0.765v-4.637c0-0.307,0.069-0.538,0.21-0.695
					c0.143-0.16,0.328-0.238,0.556-0.238c0.223,0,0.407,0.077,0.558,0.223c0.147,0.148,0.221,0.353,0.221,0.615v0.152
					c0.283-0.334,0.585-0.582,0.903-0.737c0.323-0.163,0.676-0.241,1.07-0.241c0.407,0,0.757,0.082,1.049,0.243
					c0.294,0.163,0.533,0.41,0.725,0.735c0.275-0.33,0.568-0.576,0.882-0.737c0.313-0.161,0.658-0.241,1.039-0.241
					c0.441,0,0.825,0.089,1.146,0.262c0.319,0.174,0.559,0.425,0.718,0.747c0.138,0.296,0.206,0.756,0.206,1.386v3.164
					c0,0.342-0.076,0.594-0.23,0.767c-0.154,0.171-0.359,0.256-0.612,0.256c-0.246,0-0.446-0.087-0.603-0.258
					c-0.156-0.174-0.235-0.429-0.235-0.765v-2.727c0-0.349-0.015-0.626-0.043-0.836c-0.029-0.21-0.11-0.388-0.239-0.529
					c-0.133-0.142-0.332-0.215-0.596-0.215c-0.214,0-0.417,0.066-0.609,0.192c-0.191,0.124-0.342,0.298-0.45,0.508
					C320.773,480.5,320.712,480.984,320.712,481.678"/>
			</g>
			<g>
				<path style="fill:#454F56;" d="M245.272,481.166c-0.001-0.003-0.001-0.006-0.001-0.011
					C245.271,481.16,245.271,481.163,245.272,481.166z"/>
				<path style="fill:#454F56;" d="M245.354,481.685c0.002,0,0.002,0,0.002,0c-0.031-0.148-0.056-0.294-0.075-0.439
					C245.3,481.392,245.325,481.539,245.354,481.685z"/>
				<path style="fill:#454F56;" d="M245.891,483.188c-0.004-0.006-0.007-0.014-0.011-0.02
					C245.884,483.175,245.887,483.183,245.891,483.188z"/>
				<path style="fill:#454F56;" d="M245.839,483.088c-0.014-0.027-0.028-0.056-0.041-0.083
					C245.811,483.034,245.825,483.061,245.839,483.088z"/>
				<path style="fill:#454F56;" d="M245.505,482.264c0.079,0.25,0.174,0.492,0.286,0.724c-0.113-0.235-0.206-0.479-0.284-0.724
					C245.506,482.264,245.505,482.264,245.505,482.264z"/>
				<path style="fill:#454F56;" d="M251.545,474.956c0.314,0,0.545,0.025,0.81,0.069l0.075-0.477c0,0-0.732-0.225-1.693-0.146
					l-0.076-0.26c0.299-0.063,0.523-0.328,0.523-0.645c0-0.364-0.296-0.659-0.66-0.659c-0.365,0-0.66,0.295-0.66,0.659
					c0,0.317,0.224,0.583,0.522,0.645l0.084,0.29c-1.021,0.14-1.835,0.539-1.835,0.539l0.144,0.44
					c0.618-0.206,1.153-0.331,1.64-0.384C250.895,474.978,251.254,474.956,251.545,474.956z"/>
				<path style="fill:#454F56;" d="M245.878,477.367l0.003-0.005c0.024-0.03,0.047-0.06,0.071-0.089l-0.196-0.141l-0.305-0.223
					c-0.017,0.023-0.497,0.465-0.876,1.279c-0.016-0.025-0.035-0.051-0.056-0.074c-0.114-0.124-0.272-0.188-0.475-0.184
					c-0.003,0-0.005,0-0.009,0c-0.125,0-0.211-0.042-0.267-0.092c0.056-0.071,0.09-0.16,0.09-0.259c0-0.229-0.188-0.418-0.419-0.418
					c-0.23,0-0.418,0.189-0.418,0.418c0,0.231,0.188,0.418,0.418,0.418c0.036,0,0.07-0.006,0.104-0.013
					c0.103,0.114,0.266,0.214,0.505,0.209c0.124-0.001,0.213,0.03,0.273,0.097c0.07,0.076,0.093,0.185,0.1,0.268
					c-0.001,0.001-0.001,0.003-0.002,0.003c-0.272,0.743-0.194,1.669-0.194,1.669l0.661,0.026c0.014-0.337,0.062-0.927,0.232-1.395
					C245.449,477.958,245.861,477.392,245.878,477.367z"/>
				<path style="fill:#454F56;" d="M257.295,475.509c-0.23,0-0.418,0.186-0.418,0.418c0,0.036,0.006,0.07,0.015,0.103
					c-0.115,0.104-0.214,0.268-0.211,0.507c0.002,0.123-0.029,0.213-0.097,0.272c-0.053,0.048-0.119,0.072-0.185,0.088
					c-0.492-0.689-1.098-1.109-1.098-1.109l-0.474,0.509c0.358,0.326,0.725,0.734,1.08,1.244c0.246,0.352,0.499,0.806,0.71,1.259
					l0.64-0.304c0,0-0.292-0.723-0.703-1.37c0.071-0.024,0.143-0.064,0.207-0.12c0.125-0.112,0.186-0.272,0.183-0.474
					c-0.001-0.13,0.042-0.218,0.093-0.275c0.071,0.054,0.161,0.089,0.258,0.089c0.232,0,0.419-0.188,0.419-0.418
					C257.714,475.695,257.527,475.509,257.295,475.509z"/>
				<path style="fill:#454F56;" d="M255.634,481.26c-0.88,0.429-2.33,0.996-4.238,1.262c-0.749,0.104-1.475,0.143-2.142,0.143
					c-0.869,0-1.637-0.065-2.227-0.139c-0.672-0.085-1.199-0.19-1.52-0.262c0.077,0.245,0.171,0.488,0.284,0.724
					c0.001,0.007,0.005,0.013,0.008,0.018c0.013,0.027,0.027,0.056,0.041,0.083c0.013,0.028,0.027,0.055,0.04,0.08
					c0.004,0.007,0.007,0.015,0.011,0.02c0.189,0.356,0.416,0.685,0.675,0.968c0.9,0.984,1.817,1.141,1.826,1.142l0.015,0.002
					l0.013,0.005c0.008,0.003,0.821,0.266,2.058,0.266c1.215,0,2.408-0.246,3.546-0.729c0.842-0.431,1.639-1.085,2.033-1.669
					c0.306-0.451,0.525-0.934,0.656-1.434c0.069-0.266,0.125-0.692,0.093-1.141C256.557,480.764,256.164,481.002,255.634,481.26z"/>
				<path style="fill:#454F56;" d="M246.161,477.576c-0.026,0.037-0.408,0.578-0.709,1.408c-0.227,0.622-0.216,1.527-0.216,1.537
					v0.002c0,0.213,0.012,0.423,0.036,0.632c0,0.005,0,0.008,0.001,0.011c0.002,0.027,0.006,0.053,0.009,0.08
					c0.019,0.145,0.044,0.291,0.075,0.439c0.438,0.111,3.048,0.72,5.967,0.313c1.829-0.254,3.219-0.795,4.062-1.204
					c0.701-0.34,1.151-0.647,1.325-0.773c-0.173-0.643-0.651-1.65-1.089-2.279c-1.254-1.791-2.604-2.251-3.299-2.364
					c-0.265-0.044-0.477-0.068-0.777-0.068c-0.279,0-0.626,0.022-1.089,0.071c-0.465,0.048-0.982,0.17-1.583,0.372
					c-0.842,0.282-1.605,0.725-2.204,1.28l-0.021,0.019C246.56,477.133,246.374,477.305,246.161,477.576z M253.829,477.159
					c0.601,0,1.09,0.488,1.09,1.09c0,0.601-0.489,1.09-1.09,1.09s-1.089-0.489-1.089-1.09
					C252.74,477.647,253.229,477.159,253.829,477.159z M248.679,477.116c0.973,0,1.76,0.788,1.76,1.761
					c0,0.973-0.787,1.759-1.76,1.759c-0.972,0-1.76-0.786-1.76-1.759C246.918,477.904,247.707,477.116,248.679,477.116z"/>
			</g>
		</g>
	</g>
</g>
</svg>
