<?xml version="1.0" encoding="utf-8"?>
<!-- Generator: Adobe Illustrator 27.5.0, SVG Export Plug-In . SVG Version: 6.00 Build 0)  -->
<svg version="1.1" xmlns="http://www.w3.org/2000/svg" xmlns:xlink="http://www.w3.org/1999/xlink" x="0px" y="0px"
	 viewBox="0 0 500 500" style="enable-background:new 0 0 500 500;" xml:space="preserve">
<g id="Background_Simple">
	<g>
		<path style="fill:#92E3A9;" d="M325.692,62.683c0,0-74.032-26.324-146.702,15.586c-72.67,41.91-109.337,125.106-140.826,191.749
			c-31.488,66.643-13.363,134.431,42.111,165.34c55.474,30.909,93.195-14.655,171.016-16.874
			c77.822-2.219,98.751,8.907,163.328-35.055c64.576-43.962,76.249-147.787,25.309-224.609
			C388.988,81.997,325.692,62.683,325.692,62.683z"/>
		<path style="opacity:0.8;fill:#FFFFFF;" d="M325.692,62.683c0,0-74.032-26.324-146.702,15.586
			c-72.67,41.91-109.337,125.106-140.826,191.749c-31.488,66.643-13.363,134.431,42.111,165.34
			c55.474,30.909,93.195-14.655,171.016-16.874c77.822-2.219,98.751,8.907,163.328-35.055
			c64.576-43.962,76.249-147.787,25.309-224.609C388.988,81.997,325.692,62.683,325.692,62.683z"/>
	</g>
	<g>
		<path style="fill:#92E3A9;" d="M130.712,253.788c3.555,0,6.748-1.54,8.978-3.976l-2.691-2.976
			c-1.502,1.802-3.762,2.952-6.286,2.952c-2.782,0-5.24-1.398-6.719-3.525l-2.824,2.892
			C123.402,251.973,126.846,253.788,130.712,253.788z"/>
		<path style="fill:#92E3A9;" d="M130.712,247.451c1.923,0,3.628-0.938,4.694-2.376l-2.877-3.181
			c-0.14,0.88-0.898,1.557-1.817,1.557c-1.019,0-1.847-0.829-1.847-1.847c0-0.126,0.013-0.249,0.037-0.369l-3.234,3.312
			C126.684,246.281,128.562,247.451,130.712,247.451z"/>
		<path style="fill:#92E3A9;" d="M130.476,239.625l-0.18,0.184c0.1-0.023,0.204-0.035,0.31-0.041L130.476,239.625z"/>
		<path style="fill:#92E3A9;" d="M145.682,256.439c-3.824,3.859-9.121,6.255-14.97,6.255c-6.283,0-11.916-2.776-15.782-7.148
			l-2.814,2.882c4.594,5.074,11.229,8.267,18.597,8.267c6.879,0,13.119-2.785,17.656-7.285L145.682,256.439z"/>
		<path style="fill:#92E3A9;" d="M130.712,260.578c5.304,0,10.1-2.194,13.546-5.714l-2.692-2.976
			c-2.731,2.881-6.581,4.69-10.855,4.69c-4.623,0-8.76-2.107-11.509-5.409l-2.795,2.862
			C119.889,258.033,125.004,260.578,130.712,260.578z"/>
	</g>
</g>
<g id="Plants">
	<g>
		<g>
			<g>
				<path style="fill:none;stroke:#263238;stroke-width:3;stroke-linecap:round;stroke-linejoin:round;stroke-miterlimit:10;" d="
					M211.144,321.222c0,0,0.338,42.212,0.338,53.357s-0.338,59.591-0.338,59.591"/>
				<polygon style="fill:#92E3A9;" points="236.471,332.028 226.003,323.248 255.383,326.625 229.38,318.182 256.058,313.455 
					226.003,313.455 249.304,295.894 222.964,309.065 238.16,283.062 217.898,306.363 224.99,272.255 211.819,303.999 
					210.469,268.54 207.767,304.674 193.396,272.753 203.377,307.714 181.883,284.267 200.675,313.117 174.07,294.136 
					198.987,318.182 170.78,302.771 196.623,320.209 173.247,317.163 195.947,323.586 177.771,326.621 196.623,325.949 
					185.479,333.379 211.819,326.287 				"/>
			</g>
			<path style="fill:none;stroke:#263238;stroke-width:3;stroke-linecap:round;stroke-linejoin:round;stroke-miterlimit:10;" d="
				M201.013,363.772c0,0-1.013,8.78-0.338,12.157c0.675,3.377,1.013,7.429,1.013,11.819s0.338,4.728,0.338,7.767
				c0,3.039-0.338,28.86-0.338,31.224s0,4.052,0,5.403s0,2.702,0,2.702"/>
			<path style="fill:none;stroke:#263238;stroke-width:3;stroke-linecap:round;stroke-linejoin:round;stroke-miterlimit:10;" d="
				M202.026,392.139c0,0,1.351-7.429,2.702-10.806c1.351-3.377,2.364-2.364,2.702-6.416c0.338-4.052,0.338-5.741,1.013-7.092
				s1.351-3.715,1.351-3.715l0.675-2.702"/>
			<polygon style="fill:#92E3A9;" points="226.003,372.552 215.534,363.772 244.914,367.149 218.911,358.706 245.589,353.979 
				215.534,353.979 238.835,336.418 212.495,349.589 227.691,323.586 207.429,346.887 214.521,312.779 201.351,344.523 200,309.065 
				197.298,345.198 186.83,312.441 192.908,348.238 174.335,321.559 190.207,353.641 165.845,337.724 188.518,358.706 
				163.378,348.415 186.154,360.733 162.556,358.695 185.479,364.11 169.546,367.742 186.154,366.474 175.01,373.903 
				201.351,366.811 			"/>
		</g>
		<path style="fill:#FFFFFF;stroke:#263238;stroke-linejoin:round;stroke-miterlimit:10;" d="M191.762,425.276l-7.229,12.048
			c-1.11,1.85-1.421,4.071-0.862,6.154l3.212,11.967c0.468,1.743,2.048,2.954,3.852,2.954h32.925c1.805,0,3.385-1.212,3.852-2.954
			l3.212-11.967c0.559-2.083,0.248-4.305-0.861-6.154l-7.229-12.048c-0.493-0.822-1.382-1.325-2.341-1.325h-26.191
			C193.144,423.951,192.256,424.454,191.762,425.276z"/>
	</g>
</g>
<g id="Refrigerator">
	<g>
		<g>
			<path style="fill:none;stroke:#263238;stroke-linejoin:round;stroke-miterlimit:10;" d="M162.462,458.4H31.157
				c-1.008,0-1.826-0.817-1.826-1.826V131.491c0-0.606,0.492-1.098,1.098-1.098h132.76c0.607,0,1.098,0.492,1.098,1.098v325.083
				C164.288,457.583,163.47,458.4,162.462,458.4z"/>
			
				<line style="fill:none;stroke:#263238;stroke-linejoin:round;stroke-miterlimit:10;" x1="96.809" y1="295.706" x2="96.809" y2="458.056"/>
			
				<line style="fill:none;stroke:#263238;stroke-linejoin:round;stroke-miterlimit:10;" x1="96.809" y1="130.049" x2="96.809" y2="289.915"/>
			<path style="fill:none;stroke:#263238;stroke-linejoin:round;stroke-miterlimit:10;" d="M38.271,295.607h119.714
				c1.502,0,2.72-1.218,2.72-2.72l0,0c0-1.503-1.218-2.72-2.72-2.72H38.271c-1.502,0-2.72,1.218-2.72,2.72l0,0
				C35.551,294.389,36.769,295.607,38.271,295.607z"/>
		</g>
		
			<rect x="111.7" y="161.917" style="fill:none;stroke:#263238;stroke-linejoin:round;stroke-miterlimit:10;" width="38.451" height="74.618"/>
		
			<rect x="114.716" y="167.769" style="fill:none;stroke:#263238;stroke-linejoin:round;stroke-miterlimit:10;" width="32.42" height="40.784"/>
		<g>
			
				<rect x="114.973" y="213.059" style="fill:none;stroke:#263238;stroke-linejoin:round;stroke-miterlimit:10;" width="4.615" height="4.758"/>
			
				<rect x="121.896" y="213.059" style="fill:none;stroke:#263238;stroke-linejoin:round;stroke-miterlimit:10;" width="4.615" height="4.758"/>
			
				<rect x="128.818" y="213.059" style="fill:none;stroke:#263238;stroke-linejoin:round;stroke-miterlimit:10;" width="4.615" height="4.758"/>
			
				<rect x="135.741" y="213.059" style="fill:none;stroke:#263238;stroke-linejoin:round;stroke-miterlimit:10;" width="4.615" height="4.758"/>
			
				<rect x="142.663" y="213.059" style="fill:none;stroke:#263238;stroke-linejoin:round;stroke-miterlimit:10;" width="4.615" height="4.758"/>
		</g>
		<g>
			
				<rect x="114.973" y="220.707" style="fill:none;stroke:#263238;stroke-linejoin:round;stroke-miterlimit:10;" width="4.615" height="4.758"/>
			
				<rect x="121.896" y="220.707" style="fill:none;stroke:#263238;stroke-linejoin:round;stroke-miterlimit:10;" width="4.615" height="4.758"/>
			
				<rect x="128.818" y="220.707" style="fill:none;stroke:#263238;stroke-linejoin:round;stroke-miterlimit:10;" width="4.615" height="4.758"/>
			
				<rect x="135.741" y="220.707" style="fill:none;stroke:#263238;stroke-linejoin:round;stroke-miterlimit:10;" width="4.615" height="4.758"/>
			
				<rect x="142.663" y="220.707" style="fill:none;stroke:#263238;stroke-linejoin:round;stroke-miterlimit:10;" width="4.615" height="4.758"/>
		</g>
		
			<rect x="43.907" y="218.015" style="fill:none;stroke:#263238;stroke-linejoin:round;stroke-miterlimit:10;" width="34.287" height="49.401"/>
		
			<rect x="50.126" y="218.015" style="fill:none;stroke:#263238;stroke-linejoin:round;stroke-miterlimit:10;" width="21.848" height="49.401"/>
		
			<rect x="50.126" y="218.015" style="fill:none;stroke:#263238;stroke-linejoin:round;stroke-miterlimit:10;" width="21.848" height="15.289"/>
	</g>
</g>
<g id="Air_Conditioner">
	<g>
		<path style="fill:none;stroke:#263238;stroke-linejoin:round;stroke-miterlimit:10;" d="M379.401,100.037H192.255l0,0
			c-3.138-9.312-4.764-19.067-4.815-28.894l-0.085-16.456c-0.013-2.581,2.075-4.681,4.656-4.681h187.626
			c2.584,0,4.674,2.104,4.656,4.688l-0.114,16.686c-0.064,9.398-1.569,18.731-4.461,27.673L379.401,100.037z"/>
		
			<rect x="204.341" y="92.396" style="fill:none;stroke:#263238;stroke-linejoin:round;stroke-miterlimit:10;" width="162.973" height="7.641"/>
	</g>
	<g>
		<path style="fill:#92E3A9;" d="M333.667,116.095c3.555,0,6.748-1.54,8.978-3.976l-2.691-2.976
			c-1.502,1.802-3.762,2.952-6.286,2.952c-2.782,0-5.24-1.398-6.719-3.524l-2.824,2.892
			C326.357,114.279,329.801,116.095,333.667,116.095z"/>
		<path style="fill:#92E3A9;" d="M333.667,109.758c1.923,0,3.628-0.938,4.694-2.376l-2.877-3.181
			c-0.14,0.88-0.898,1.557-1.817,1.557c-1.019,0-1.847-0.829-1.847-1.847c0-0.126,0.013-0.25,0.037-0.369l-3.234,3.312
			C329.639,108.588,331.517,109.758,333.667,109.758z"/>
		<path style="fill:#92E3A9;" d="M333.431,101.931l-0.18,0.184c0.1-0.023,0.204-0.034,0.31-0.041L333.431,101.931z"/>
		<path style="fill:#92E3A9;" d="M348.637,118.745c-3.824,3.859-9.121,6.255-14.97,6.255c-6.283,0-11.916-2.776-15.782-7.149
			l-2.814,2.882c4.594,5.074,11.229,8.267,18.597,8.267c6.879,0,13.12-2.785,17.656-7.285L348.637,118.745z"/>
		<path style="fill:#92E3A9;" d="M333.667,122.884c5.304,0,10.1-2.193,13.546-5.714l-2.692-2.976
			c-2.731,2.881-6.581,4.69-10.855,4.69c-4.622,0-8.76-2.107-11.509-5.409l-2.795,2.862
			C322.844,120.339,327.959,122.884,333.667,122.884z"/>
	</g>
</g>
<g id="Music_Box">
	<g>
		
			<rect x="337.805" y="389.146" style="fill:none;stroke:#263238;stroke-linejoin:round;stroke-miterlimit:10;" width="100.38" height="12.461"/>
		
			<rect x="294.142" y="401.587" style="fill:none;stroke:#263238;stroke-linejoin:round;stroke-miterlimit:10;" width="187.706" height="56.813"/>
		
			<rect x="299.142" y="405.217" style="fill:none;stroke:#263238;stroke-linejoin:round;stroke-miterlimit:10;" width="177.707" height="49.553"/>
		
			<line style="fill:none;stroke:#263238;stroke-linejoin:round;stroke-miterlimit:10;" x1="358.484" y1="404.988" x2="358.484" y2="454.743"/>
		
			<line style="fill:none;stroke:#263238;stroke-linejoin:round;stroke-miterlimit:10;" x1="416.7" y1="404.988" x2="416.7" y2="454.743"/>
		
			<rect x="307.599" y="366.119" style="fill:none;stroke:#263238;stroke-linejoin:round;stroke-miterlimit:10;" width="25.349" height="35.489"/>
		
			<rect x="442.583" y="366.119" style="fill:none;stroke:#263238;stroke-linejoin:round;stroke-miterlimit:10;" width="25.349" height="35.489"/>
	</g>
	<g>
		<path style="fill:#92E3A9;" d="M389.895,373.151c-3.555,0-6.748,1.54-8.978,3.976l2.691,2.976
			c1.502-1.802,3.762-2.952,6.286-2.952c2.782,0,5.24,1.398,6.719,3.525l2.824-2.892
			C397.205,374.967,393.761,373.151,389.895,373.151z"/>
		<path style="fill:#92E3A9;" d="M389.895,379.488c-1.923,0-3.628,0.938-4.694,2.376l2.877,3.181c0.14-0.88,0.898-1.556,1.817-1.556
			c1.019,0,1.847,0.829,1.847,1.847c0,0.126-0.013,0.25-0.037,0.369l3.234-3.312C393.923,380.658,392.046,379.488,389.895,379.488z"
			/>
		<path style="fill:#92E3A9;" d="M390.131,387.315l0.18-0.184c-0.1,0.023-0.204,0.035-0.31,0.041L390.131,387.315z"/>
		<path style="fill:#92E3A9;" d="M374.925,370.501c3.824-3.859,9.121-6.255,14.97-6.255c6.283,0,11.916,2.776,15.782,7.148
			l2.814-2.882c-4.594-5.074-11.229-8.267-18.597-8.267c-6.879,0-13.119,2.785-17.656,7.285L374.925,370.501z"/>
		<path style="fill:#92E3A9;" d="M389.895,366.362c-5.304,0-10.1,2.193-13.546,5.714l2.692,2.976
			c2.731-2.881,6.581-4.69,10.855-4.69c4.623,0,8.76,2.107,11.509,5.409l2.795-2.862
			C400.718,368.907,395.603,366.362,389.895,366.362z"/>
	</g>
</g>
<g id="Lamps">
	<g>
		<path style="fill:none;stroke:#263238;stroke-linejoin:round;stroke-miterlimit:10;" d="M476.439,71.89c0,3.203-2.597,5.8-5.8,5.8
			s-5.8-2.597-5.8-5.8c0-3.203,2.597-5.8,5.8-5.8S476.439,68.687,476.439,71.89z"/>
		<path style="fill:none;stroke:#263238;stroke-linejoin:round;stroke-miterlimit:10;" d="M485.042,114.818h-28.807V92.092
			c0-7.955,6.448-14.403,14.403-14.403l0,0c7.955,0,14.403,6.449,14.403,14.403V114.818z"/>
		
			<line style="fill:none;stroke:#263238;stroke-width:2;stroke-linejoin:round;stroke-miterlimit:10;" x1="470.639" y1="66.09" x2="470.639" y2="38"/>
	</g>
	<g>
		<path style="fill:none;stroke:#263238;stroke-linejoin:round;stroke-miterlimit:10;" d="M89.52,71.89c0,3.203-2.597,5.8-5.8,5.8
			s-5.8-2.597-5.8-5.8c0-3.203,2.597-5.8,5.8-5.8S89.52,68.687,89.52,71.89z"/>
		<path style="fill:none;stroke:#263238;stroke-linejoin:round;stroke-miterlimit:10;" d="M98.124,114.818H69.317V92.092
			c0-7.955,6.449-14.403,14.403-14.403l0,0c7.955,0,14.403,6.449,14.403,14.403V114.818z"/>
		
			<line style="fill:none;stroke:#263238;stroke-width:2;stroke-linejoin:round;stroke-miterlimit:10;" x1="83.72" y1="66.09" x2="83.72" y2="38"/>
	</g>
	<g>
		<path style="fill:#92E3A9;" d="M117.826,110.329c0-3.555-1.54-6.748-3.976-8.978l-2.976,2.692
			c1.802,1.502,2.952,3.762,2.952,6.286c0,2.782-1.398,5.24-3.524,6.719l2.892,2.824
			C116.01,117.638,117.826,114.195,117.826,110.329z"/>
		<path style="fill:#92E3A9;" d="M111.489,110.329c0-1.923-0.938-3.628-2.376-4.694l-3.181,2.877c0.88,0.14,1.557,0.898,1.557,1.817
			c0,1.019-0.829,1.847-1.847,1.847c-0.126,0-0.249-0.013-0.369-0.037l3.312,3.234C110.319,114.357,111.489,112.479,111.489,110.329
			z"/>
		<path style="fill:#92E3A9;" d="M103.662,110.565l0.184,0.18c-0.023-0.1-0.035-0.204-0.041-0.31L103.662,110.565z"/>
		<path style="fill:#92E3A9;" d="M120.476,95.359c3.859,3.824,6.255,9.121,6.255,14.97c0,6.283-2.776,11.916-7.149,15.782
			l2.882,2.814c5.074-4.594,8.267-11.229,8.267-18.596c0-6.879-2.785-13.119-7.285-17.656L120.476,95.359z"/>
		<path style="fill:#92E3A9;" d="M124.615,110.329c0-5.304-2.193-10.1-5.714-13.546l-2.976,2.692
			c2.881,2.731,4.69,6.581,4.69,10.855c0,4.623-2.107,8.76-5.409,11.509l2.862,2.795
			C122.07,121.151,124.615,116.037,124.615,110.329z"/>
	</g>
</g>
<g id="TV">
	
		<rect x="307.107" y="170.55" style="fill:none;stroke:#263238;stroke-linejoin:round;stroke-miterlimit:10;" width="167.237" height="112.135"/>
	
		<rect x="311.645" y="175.284" style="fill:none;stroke:#263238;stroke-linejoin:round;stroke-miterlimit:10;" width="158.158" height="102.669"/>
	<g>
		<path style="fill:#92E3A9;" d="M389.895,155.151c-3.555,0-6.748,1.54-8.978,3.976l2.691,2.976
			c1.502-1.802,3.762-2.952,6.286-2.952c2.782,0,5.24,1.398,6.719,3.525l2.824-2.892
			C397.205,156.967,393.761,155.151,389.895,155.151z"/>
		<path style="fill:#92E3A9;" d="M389.895,161.488c-1.923,0-3.628,0.938-4.694,2.376l2.877,3.181c0.14-0.88,0.898-1.556,1.817-1.556
			c1.019,0,1.847,0.829,1.847,1.847c0,0.126-0.013,0.25-0.037,0.369l3.234-3.312C393.923,162.658,392.046,161.488,389.895,161.488z"
			/>
		<path style="fill:#92E3A9;" d="M390.131,169.315l0.18-0.184c-0.1,0.023-0.204,0.035-0.31,0.041L390.131,169.315z"/>
		<path style="fill:#92E3A9;" d="M374.925,152.501c3.824-3.859,9.121-6.255,14.97-6.255c6.283,0,11.916,2.776,15.782,7.148
			l2.814-2.882c-4.594-5.074-11.229-8.267-18.597-8.267c-6.879,0-13.119,2.785-17.656,7.285L374.925,152.501z"/>
		<path style="fill:#92E3A9;" d="M389.895,148.361c-5.304,0-10.1,2.193-13.546,5.714l2.692,2.976
			c2.731-2.881,6.581-4.69,10.855-4.69c4.623,0,8.76,2.107,11.509,5.409l2.795-2.862
			C400.718,150.907,395.603,148.361,389.895,148.361z"/>
	</g>
</g>
<g id="Character">
	<g>
		<g>
			<polyline style="fill:none;stroke:#263238;stroke-miterlimit:10;stroke-dasharray:2;" points="236.645,146.983 236.38,218.029 
				194.251,163.196 			"/>
			<polyline style="fill:none;stroke:#263238;stroke-miterlimit:10;stroke-dasharray:2;" points="174.412,234.835 234.405,218.667 
				174.085,195.799 			"/>
			
				<line style="fill:none;stroke:#263238;stroke-miterlimit:10;stroke-dasharray:2;" x1="234.405" y1="218.667" x2="199.293" y2="264.365"/>
			<g>
				<g>
					<path style="fill:none;stroke:#263238;stroke-miterlimit:10;" d="M238.041,149.605c-0.333-0.006-0.666-0.01-1-0.012"/>
					<path style="fill:none;stroke:#263238;stroke-miterlimit:10;stroke-dasharray:2.008,2.008;" d="M235.033,149.617
						c-1.415,0.038-2.839,0.123-4.269,0.254c-35.703,3.289-61.98,34.899-58.691,70.602c1.856,20.152,12.735,37.301,28.28,47.825"/>
					<path style="fill:none;stroke:#263238;stroke-miterlimit:10;" d="M201.189,268.855c0.279,0.182,0.559,0.363,0.84,0.541"/>
				</g>
			</g>
			<g>
				<path style="fill:#92E3A9;" d="M188.782,196.889c0.003-7.797-6.314-14.12-14.111-14.123c-7.797-0.003-14.12,6.314-14.123,14.111
					c-0.003,7.796,6.314,14.12,14.111,14.123S188.779,204.686,188.782,196.889z"/>
				<g>
					<g>
						<path style="fill:#263238;" d="M174.82,205.844c-1.758-0.001-3.342-1.046-4.036-2.663c-0.041-0.084-0.079-0.195-0.114-0.306
							c-0.02-0.056-0.044-0.13-0.066-0.204c-0.484-1.48-1.096-2.971-1.195-3.211c-0.531-0.961-0.799-1.99-0.799-3.061
							c0.001-3.426,2.79-6.213,6.217-6.211c3.426,0.001,6.213,2.79,6.211,6.217c0,0.847-0.191,1.682-0.618,2.707l0,0
							c-0.155,0.374-0.339,0.74-0.523,1.105c-0.238,0.472-0.462,0.918-0.62,1.375c-0.069,0.199-0.125,0.397-0.181,0.594
							c-0.131,0.46-0.266,0.936-0.538,1.418C177.752,205.028,176.39,205.845,174.82,205.844z M174.826,191.532
							c-2.685-0.001-4.87,2.182-4.871,4.867c0,0.85,0.217,1.671,0.647,2.439l0.033,0.069c0.029,0.068,0.705,1.688,1.254,3.369
							c0.021,0.073,0.038,0.121,0.055,0.17c0.023,0.072,0.038,0.125,0.063,0.177c0.494,1.15,1.593,1.876,2.813,1.876
							c1.087,0,1.999-0.553,2.567-1.557c0.193-0.342,0.301-0.721,0.415-1.123c0.063-0.221,0.126-0.443,0.204-0.666
							c0.187-0.543,0.443-1.05,0.69-1.541c0.17-0.337,0.34-0.673,0.483-1.017v0c0.356-0.854,0.515-1.53,0.515-2.191
							C179.694,193.719,177.511,191.533,174.826,191.532z"/>
					</g>
					<g>
						<path style="fill:#263238;" d="M174.836,189.825c-0.371,0-0.672-0.301-0.672-0.673l0.001-3.109
							c0-0.371,0.301-0.672,0.673-0.672c0.371,0,0.672,0.301,0.672,0.673l-0.001,3.109
							C175.509,189.524,175.208,189.825,174.836,189.825z"/>
					</g>
					<g>
						<path style="fill:#263238;" d="M167.355,197.048l-2.437-0.001c-0.371,0-0.672-0.301-0.672-0.673
							c0-0.371,0.301-0.672,0.673-0.672l2.437,0.001c0.371,0,0.672,0.301,0.672,0.673
							C168.027,196.747,167.726,197.048,167.355,197.048z"/>
					</g>
					<g>
						<path style="fill:#263238;" d="M184.581,197.056l-2.437-0.001c-0.371,0-0.672-0.301-0.672-0.673
							c0-0.371,0.301-0.672,0.673-0.672l2.437,0.001c0.371,0,0.672,0.301,0.672,0.673
							C185.253,196.755,184.952,197.056,184.581,197.056z"/>
					</g>
					<g>
						<path style="fill:#263238;" d="M169.122,191.503c-0.172,0-0.344-0.066-0.475-0.197l-1.932-1.934
							c-0.262-0.263-0.262-0.688,0.001-0.951c0.263-0.262,0.688-0.262,0.95,0l1.932,1.934c0.263,0.263,0.262,0.688,0,0.951
							C169.466,191.437,169.294,191.503,169.122,191.503z"/>
					</g>
					<g>
						<path style="fill:#263238;" d="M180.718,191.508c-0.172,0-0.344-0.066-0.475-0.197c-0.262-0.263-0.262-0.688,0-0.951
							l1.934-1.932c0.263-0.263,0.688-0.262,0.951,0c0.263,0.263,0.262,0.688,0,0.951l-1.934,1.932
							C181.062,191.442,180.89,191.508,180.718,191.508z"/>
					</g>
				</g>
			</g>
			<g>
				<path style="fill:#92E3A9;" d="M210.638,165.77c0.063-7.796-6.206-14.168-14.002-14.231
					c-7.796-0.063-14.168,6.206-14.231,14.003c-0.063,7.796,6.206,14.168,14.002,14.231
					C204.203,179.835,210.575,173.566,210.638,165.77z"/>
				<g>
					<g>
						<path style="fill:#263238;" d="M196.5,173.62c-4.385-0.035-7.923-3.631-7.887-8.016c0.026-3.203,1.955-6.063,4.915-7.286
							c0.577-0.239,1.237,0.035,1.474,0.612c0.238,0.576-0.036,1.236-0.611,1.474c-2.12,0.877-3.502,2.925-3.521,5.219
							c-0.025,3.14,2.508,5.715,5.648,5.74c3.14,0.025,5.715-2.508,5.74-5.648c0.018-2.169-1.173-4.131-3.106-5.119
							c-0.555-0.284-0.775-0.964-0.492-1.519c0.283-0.555,0.963-0.775,1.519-0.492c2.699,1.38,4.361,4.119,4.336,7.148
							C204.48,170.117,200.884,173.655,196.5,173.62z"/>
					</g>
					<g>
						<path style="fill:#263238;" d="M196.575,164.316c-0.623-0.005-1.124-0.514-1.119-1.138l0.055-6.823
							c0.005-0.623,0.514-1.124,1.138-1.119c0.623,0.005,1.124,0.514,1.119,1.138l-0.055,6.822
							C197.708,163.82,197.198,164.321,196.575,164.316z"/>
					</g>
				</g>
			</g>
			<g>
				
					<ellipse transform="matrix(0.8943 -0.4474 0.4474 0.8943 -98.0007 117.2757)" style="fill:#92E3A9;" cx="199.288" cy="266.118" rx="14.117" ry="14.117"/>
				<g>
					<path style="fill:#263238;" d="M203.94,262.264l-4.695-0.017l0.01-2.7c0.007-2.076-1.675-3.77-3.751-3.778l-0.217-0.001
						c-2.076-0.007-3.77,1.675-3.778,3.751l-0.012,3.418c-0.001,0.371,0.298,0.673,0.67,0.675c0.371,0.001,0.673-0.299,0.675-0.67
						l0.012-3.418c0.005-1.334,1.094-2.416,2.429-2.411l0.217,0.001c1.334,0.005,2.416,1.094,2.411,2.429l-0.01,2.7l-2.107-0.008
						c-0.843-0.003-1.531,0.68-1.534,1.523l-0.03,8.147c-0.003,0.843,0.68,1.531,1.523,1.534l8.146,0.03
						c0.843,0.003,1.531-0.68,1.534-1.523l0.03-8.146C205.466,262.955,204.783,262.267,203.94,262.264z M204.089,271.94
						c0,0.102-0.083,0.184-0.185,0.184l-8.147-0.03c-0.101,0-0.184-0.083-0.183-0.185l0.03-8.147c0-0.101,0.083-0.184,0.185-0.184
						l8.147,0.03c0.101,0,0.184,0.083,0.184,0.185L204.089,271.94z"/>
					<path style="fill:#263238;" d="M199.854,265.897c-0.629-0.002-1.141,0.506-1.143,1.135c-0.002,0.472,0.284,0.878,0.692,1.052
						l-0.007,1.88l0.887,0.003l0.007-1.88c0.409-0.172,0.698-0.575,0.699-1.047C200.991,266.411,200.483,265.899,199.854,265.897z"
						/>
				</g>
			</g>
			<g>
				
					<ellipse transform="matrix(0.9522 -0.3054 0.3054 0.9522 -63.3931 64.4949)" style="fill:#92E3A9;" cx="174.412" cy="234.835" rx="14.117" ry="14.117"/>
				<g>
					<path style="fill:#263238;" d="M176.055,235.066l0.107-7.31c0.022-1.523-1.199-2.78-2.721-2.802
						c-1.523-0.022-2.78,1.199-2.802,2.721l-0.008,0.573l-1.664-0.024c-0.427-0.006-0.779,0.335-0.785,0.762
						c-0.006,0.427,0.335,0.779,0.762,0.785l1.664,0.024l-0.017,1.147l-1.664-0.024c-0.427-0.006-0.779,0.335-0.785,0.762
						c-0.006,0.427,0.335,0.779,0.762,0.785l1.664,0.024l-0.017,1.147l-1.664-0.024c-0.427-0.006-0.779,0.335-0.785,0.762
						c-0.006,0.427,0.335,0.779,0.762,0.785l1.526,0.022c-1.204,0.9-1.949,2.309-1.971,3.816c-0.039,2.69,2.117,4.91,4.807,4.949
						c2.69,0.039,4.91-2.117,4.95-4.807C178.2,237.509,177.397,235.988,176.055,235.066z M173.25,242.4
						c-1.837-0.027-3.31-1.543-3.283-3.38c0.017-1.187,0.657-2.25,1.71-2.842l0.388-0.218l0.121-8.262
						c0.01-0.67,0.563-1.207,1.233-1.197c0.67,0.01,1.207,0.563,1.197,1.232l-0.12,8.211l0.406,0.225
						c1.084,0.601,1.747,1.731,1.729,2.949C176.603,240.955,175.087,242.427,173.25,242.4z"/>
					<path style="fill:#263238;" d="M180.51,226.856c-1.706-0.025-3.114,1.343-3.139,3.049c-0.025,1.706,1.342,3.114,3.049,3.139
						c1.706,0.025,3.114-1.343,3.139-3.049C183.584,228.289,182.216,226.881,180.51,226.856z M180.442,231.497
						c-0.853-0.012-1.537-0.716-1.524-1.57c0.012-0.853,0.717-1.537,1.57-1.525c0.853,0.012,1.537,0.716,1.525,1.57
						C181.999,230.826,181.295,231.51,180.442,231.497z"/>
				</g>
			</g>
			<g>
				
					<ellipse transform="matrix(0.2702 -0.9628 0.9628 0.2702 25.5635 339.3917)" style="fill:#92E3A9;" cx="236.645" cy="152.834" rx="14.117" ry="14.117"/>
				<path style="fill:#263238;" d="M243.325,154.788l0.045-8.855l-0.009,0l0.003-0.638c0.004-0.829-0.667-1.506-1.495-1.51
					l-8.928-0.046c-0.828-0.004-1.506,0.666-1.51,1.495l-0.003,0.638l-0.008,1.531l-0.029,5.757
					c-0.563-0.314-1.224-0.505-1.939-0.509c-2.024-0.01-3.678,1.428-3.687,3.206c-0.009,1.778,1.63,3.233,3.654,3.243
					c2.024,0.01,3.678-1.428,3.688-3.206c0.002-0.41-0.092-0.799-0.25-1.161l0.03-5.823c0.01,0,0.018,0.003,0.028,0.003l8.928,0.046
					c0.013,0,0.025-0.003,0.038-0.004l-0.022,4.258c-0.563-0.314-1.225-0.506-1.939-0.509c-2.024-0.01-3.678,1.428-3.687,3.206
					c-0.009,1.778,1.63,3.233,3.654,3.243c2.024,0.01,3.678-1.428,3.688-3.206C243.576,155.538,243.482,155.15,243.325,154.788z
					 M229.427,157.625c-1.211-0.006-2.192-0.796-2.187-1.761c0.005-0.965,0.994-1.745,2.205-1.739
					c1.211,0.006,2.193,0.797,2.188,1.762S230.638,157.631,229.427,157.625z M241.88,147.456c0,0.016-0.013,0.028-0.029,0.028
					l-8.956-0.074l0.039-2.196l8.957,0.074L241.88,147.456z M239.894,157.678c-1.211-0.006-2.192-0.796-2.187-1.761
					c0.005-0.965,0.994-1.745,2.205-1.739c1.212,0.006,2.193,0.796,2.188,1.761C242.095,156.904,241.106,157.685,239.894,157.678z"
					/>
			</g>
		</g>
		<g>
			<g>
				<path style="fill:#92E3A9;stroke:#263238;stroke-linejoin:round;stroke-miterlimit:10;" d="M312.171,206.298
					c0,0,4.799,2.133,6.665,6.665c1.866,4.532,17.862,45.587,18.395,48.786c0.533,3.199-17.062,31.991-17.062,31.991l-5.065-4.799
					l5.598-23.46l-7.198-17.328l-3.999-5.598"/>
				<path style="fill:#FFFFFF;stroke:#263238;stroke-linejoin:round;stroke-miterlimit:10;" d="M332.986,271.572
					c-6.708-3.18-11.856-1.517-13.551-0.782l-4.332,18.152l5.065,4.799C320.169,293.74,327.929,281.04,332.986,271.572z"/>
			</g>
			<g>
				<g>
					<path style="fill:#263238;stroke:#263238;stroke-linejoin:round;stroke-miterlimit:10;" d="M313.013,288.862
						c0,0,7.01,13.906,6.122,19.232c-0.888,5.326-3.255,117.464-3.255,117.464l-15.386,0.592l-14.498-110.659l-4.142,0.592
						l-6.805,111.251l-17.161-2.663l-5.326-108.884l-0.888-24.262L313.013,288.862z"/>
					<g>
						<path style="fill:#5E5E5E;stroke:#263238;stroke-linejoin:round;stroke-miterlimit:10;" d="M256.705,376.442
							c0,0,1.292-0.2,2.057-0.855c0.765-0.656,0.656-0.656,2.404,1.093c1.749,1.749,1.312,2.514,2.732,1.421
							c1.421-1.093,1.093-1.53,2.514,0.109c1.421,1.639,1.093,2.186,3.06,1.858c1.967-0.328,2.295-0.874,2.295,0.765
							c0,1.639-0.328,2.077,0.547,2.405c0.874,0.328,1.967,0.874,2.623,1.749c0.656,0.874,0.984,0.437,1.312,1.421
							c0.328,0.984,0.984,1.53,0.984,1.53L256.705,376.442z"/>
						<path style="fill:#5E5E5E;stroke:#263238;stroke-linejoin:round;stroke-miterlimit:10;" d="M256.795,376.789
							c0,0,1.311,1.858,1.639,3.935c0.328,2.077-0.328,3.716,0.765,4.7c1.093,0.984,1.749,0.546,1.967,1.421
							c0.219,0.874-0.328,1.749,0.219,2.077c0.546,0.328,2.732-1.093,2.732-0.437c0,0.656-0.219,0.984,0.656,0.656
							c0.874-0.328,0.874-1.421,1.421-0.328c0.547,1.093,0.984,2.514,1.312,2.295c0.328-0.219,1.967-1.312,3.388-1.312
							c1.421,0,1.749,0.328,2.077,0.437c0.328,0.109,0.874,0.656,1.202,0.109c0.328-0.547,3.244-2.064,3.244-2.064L256.795,376.789z
							"/>
						<path style="fill:#FFFFFF;stroke:#263238;stroke-linejoin:round;stroke-miterlimit:10;" d="M256.705,376.442l20.712,11.835
							C277.417,388.277,262.327,389.165,256.705,376.442z"/>
					</g>
					<g>
						<path style="fill:#5E5E5E;stroke:#263238;stroke-linejoin:round;stroke-miterlimit:10;" d="M295.54,359.323
							c0,0,0.396-1.246,0.149-2.223c-0.247-0.977-0.296-0.879,2.048-1.667c2.344-0.788,2.835-0.057,2.488-1.815
							c-0.347-1.759-0.884-1.659,1.216-2.203c2.1-0.543,2.444-0.007,3.025-1.914c0.581-1.908,0.238-2.444,1.706-1.715
							c1.468,0.729,1.714,1.217,2.397,0.58c0.683-0.637,1.658-1.373,2.733-1.572c1.075-0.198,0.829-0.686,1.856-0.543
							c1.027,0.144,1.808-0.201,1.808-0.201L295.54,359.323z"/>
						<path style="fill:#5E5E5E;stroke:#263238;stroke-linejoin:round;stroke-miterlimit:10;" d="M295.891,359.397
							c0,0,2.247-0.348,4.253,0.282c2.006,0.63,3.182,1.946,4.549,1.405c1.367-0.541,1.267-1.323,2.148-1.13
							c0.88,0.193,1.42,1.071,1.957,0.728c0.537-0.344,0.236-2.933,0.824-2.642c0.587,0.292,0.784,0.633,0.879-0.296
							c0.095-0.929-0.884-1.415,0.338-1.418c1.222-0.003,2.689,0.237,2.639-0.154c-0.05-0.391-0.3-2.345,0.332-3.618
							c0.632-1.272,1.071-1.42,1.315-1.665c0.244-0.245,0.976-0.491,0.633-1.028c-0.344-0.537-0.406-3.824-0.406-3.824
							L295.891,359.397z"/>
						<path style="fill:#FFFFFF;stroke:#263238;stroke-linejoin:round;stroke-miterlimit:10;" d="M295.54,359.323l19.812-13.286
							C315.352,346.037,309.435,359.947,295.54,359.323z"/>
					</g>
				</g>
				<g>
					<g>
						<path style="fill:#FFFFFF;stroke:#263238;stroke-linejoin:round;stroke-miterlimit:10;" d="M258.48,422.895
							c0,0-4.438,1.479-4.438,3.255c0,1.775,2.071,16.569,2.071,16.569s-10.06,5.622-10.948,7.101
							c-0.888,1.479-0.296,8.581-0.296,8.581h30.18c0,0,0.888-7.397,0.888-10.06c0-2.663-0.888-7.693-0.888-7.693l1.775-15.09
							C276.825,425.558,268.244,419.048,258.48,422.895z"/>
						<path style="fill:#FFFFFF;stroke:#263238;stroke-linejoin:round;stroke-miterlimit:10;" d="M244.87,458.4h30.18
							c0,0,0.19-1.587,0.394-3.551H244.69C244.732,456.734,244.87,458.4,244.87,458.4z"/>
					</g>
					<path style="fill:#FFFFFF;stroke:#263238;stroke-linejoin:round;stroke-miterlimit:10;" d="M270.907,421.711
						c0,0-3.551-3.551-8.581-3.551c-5.03,0-7.101,2.959-7.101,2.959l2.959,14.794h7.989L270.907,421.711z"/>
					<g>
						<path style="fill:#FFFFFF;stroke:#263238;stroke-linejoin:round;stroke-miterlimit:10;" d="M267.346,437.281h-10.199
							c-0.461,0-0.835-0.374-0.835-0.835l0,0c0-0.461,0.374-0.835,0.835-0.835h10.199c0.461,0,0.835,0.374,0.835,0.835l0,0
							C268.181,436.907,267.807,437.281,267.346,437.281z"/>
						<path style="fill:#FFFFFF;stroke:#263238;stroke-linejoin:round;stroke-miterlimit:10;" d="M267.346,439.321h-10.199
							c-0.461,0-0.835-0.374-0.835-0.835l0,0c0-0.461,0.374-0.835,0.835-0.835h10.199c0.461,0,0.835,0.374,0.835,0.835l0,0
							C268.181,438.947,267.807,439.321,267.346,439.321z"/>
						<path style="fill:#FFFFFF;stroke:#263238;stroke-linejoin:round;stroke-miterlimit:10;" d="M267.346,441.361h-10.199
							c-0.461,0-0.835-0.374-0.835-0.834l0,0c0-0.461,0.374-0.834,0.835-0.834h10.199c0.461,0,0.835,0.374,0.835,0.834l0,0
							C268.181,440.987,267.807,441.361,267.346,441.361z"/>
						<path style="fill:#FFFFFF;stroke:#263238;stroke-linejoin:round;stroke-miterlimit:10;" d="M267.346,443.401h-10.199
							c-0.461,0-0.835-0.374-0.835-0.835l0,0c0-0.461,0.374-0.835,0.835-0.835h10.199c0.461,0,0.835,0.374,0.835,0.835l0,0
							C268.181,443.027,267.807,443.401,267.346,443.401z"/>
					</g>
				</g>
				<g>
					<g>
						<path style="fill:#FFFFFF;stroke:#263238;stroke-linejoin:round;stroke-miterlimit:10;" d="M316.575,422.895
							c0,0,4.438,1.479,4.438,3.255c0,1.775-2.071,16.569-2.071,16.569s10.06,5.622,10.948,7.101
							c0.888,1.479,0.296,8.581,0.296,8.581h-30.18c0,0-0.888-7.397-0.888-10.06c0-2.663,0.888-7.693,0.888-7.693l-1.775-15.09
							C298.231,425.558,306.811,419.048,316.575,422.895z"/>
						<path style="fill:#FFFFFF;stroke:#263238;stroke-linejoin:round;stroke-miterlimit:10;" d="M330.186,458.4h-30.18
							c0,0-0.19-1.587-0.394-3.551h30.754C330.324,456.734,330.186,458.4,330.186,458.4z"/>
					</g>
					<path style="fill:#FFFFFF;stroke:#263238;stroke-linejoin:round;stroke-miterlimit:10;" d="M304.148,421.711
						c0,0,3.55-3.551,8.58-3.551s7.101,2.959,7.101,2.959l-2.959,14.794h-7.989L304.148,421.711z"/>
					<g>
						<path style="fill:#FFFFFF;stroke:#263238;stroke-linejoin:round;stroke-miterlimit:10;" d="M317.786,437.281h-10.199
							c-0.461,0-0.835-0.374-0.835-0.835l0,0c0-0.461,0.374-0.835,0.835-0.835h10.199c0.461,0,0.835,0.374,0.835,0.835l0,0
							C318.621,436.907,318.247,437.281,317.786,437.281z"/>
						<path style="fill:#FFFFFF;stroke:#263238;stroke-linejoin:round;stroke-miterlimit:10;" d="M317.786,439.321h-10.199
							c-0.461,0-0.835-0.374-0.835-0.835l0,0c0-0.461,0.374-0.835,0.835-0.835h10.199c0.461,0,0.835,0.374,0.835,0.835l0,0
							C318.621,438.947,318.247,439.321,317.786,439.321z"/>
						<path style="fill:#FFFFFF;stroke:#263238;stroke-linejoin:round;stroke-miterlimit:10;" d="M317.786,441.361h-10.199
							c-0.461,0-0.835-0.374-0.835-0.834l0,0c0-0.461,0.374-0.834,0.835-0.834h10.199c0.461,0,0.835,0.374,0.835,0.834l0,0
							C318.621,440.987,318.247,441.361,317.786,441.361z"/>
						<path style="fill:#FFFFFF;stroke:#263238;stroke-linejoin:round;stroke-miterlimit:10;" d="M317.786,443.401h-10.199
							c-0.461,0-0.835-0.374-0.835-0.835l0,0c0-0.461,0.374-0.835,0.835-0.835h10.199c0.461,0,0.835,0.374,0.835,0.835l0,0
							C318.621,443.027,318.247,443.401,317.786,443.401z"/>
					</g>
				</g>
			</g>
			<g>
				<path style="fill:#92E3A9;stroke:#263238;stroke-linejoin:round;stroke-miterlimit:10;" d="M273.912,178.531
					c0,0-0.777,13.572-1.035,15.643c-0.259,2.071-7.765,5.953-14.236,9.059c-6.471,3.106-11.907,4.4-11.648,7.247
					c0.259,2.847,4.142,108.972,4.142,108.972s8.801-0.259,21.742-5.177c12.942-4.918,20.707-11.13,27.178-16.566
					c6.471-5.436,12.942-8.024,12.942-8.024s1.035-50.215,1.035-59.016c0-8.801,1.812-17.86,1.294-21.484
					c-0.518-3.624-16.048-8.024-19.931-9.836c-3.883-1.812-3.883-1.812-3.883-1.812s0-5.03,1.553-8.137
					c1.553-3.106,1.553-3.106,1.553-3.106l-19.931-8.801L273.912,178.531z"/>
				<path style="fill:#FFFFFF;stroke:#263238;stroke-linejoin:round;stroke-miterlimit:10;" d="M300.054,297.71
					c6.471-5.436,12.942-8.024,12.942-8.024s0.006-0.291,0.017-0.824c-3.947,0.187-7.724,2.21-24.302,7.811
					c-16.683,5.636-33.363,7.65-38.115,8.137c0.327,8.877,0.538,14.643,0.538,14.643s8.801-0.259,21.742-5.177
					C285.818,309.358,293.583,303.146,300.054,297.71z"/>
				<path style="fill:none;stroke:#263238;stroke-linejoin:round;stroke-miterlimit:10;" d="M250.322,297.472
					c0,0,46.12-6.398,62.649-11.73"/>
			</g>
			<g>
				<path style="fill:#FFFFFF;stroke:#263238;stroke-linejoin:round;stroke-miterlimit:10;" d="M295.395,199.351
					c-3.883-1.812-3.883-1.812-3.883-1.812s0-5.03,1.553-8.137c1.553-3.106,1.553-3.106,1.553-3.106l-19.931-8.801l-0.776,1.035
					c0,0-0.777,13.572-1.035,15.643c-0.169,1.351-3.427,3.473-7.466,5.648c2.502,2.766,9.088,9.298,16.784,10.918
					c6.198,1.305,11.571-5.405,14.764-10.743C296.334,199.757,295.799,199.539,295.395,199.351z"/>
				<g>
					<path style="fill:#263238;stroke:#263238;stroke-linejoin:round;stroke-miterlimit:10;" d="M285.084,222.708l0.215-2.105
						c0.274-2.687,0.274-5.395,0-8.081l-0.215-2.105c0,0-4.892-0.251-6.397,2.007c-1.505,2.258-0.759,6.475-0.376,7.777
						C278.938,222.332,285.084,222.708,285.084,222.708z"/>
					<path style="fill:#263238;stroke:#263238;stroke-linejoin:round;stroke-miterlimit:10;" d="M285.084,237.634l0.215-2.105
						c0.274-2.687,0.274-5.395,0-8.081l-0.215-2.105c0,0-4.892-0.251-6.397,2.007c-1.505,2.258-0.759,6.475-0.376,7.777
						C278.938,237.258,285.084,237.634,285.084,237.634z"/>
					
						<line style="fill:none;stroke:#263238;stroke-linejoin:round;stroke-miterlimit:10;" x1="285.084" y1="222.708" x2="285.084" y2="225.342"/>
					
						<line style="fill:none;stroke:#263238;stroke-linejoin:round;stroke-miterlimit:10;" x1="283.579" y1="222.708" x2="283.579" y2="225.091"/>
				</g>
				<path style="fill:#263238;stroke:#263238;stroke-linejoin:round;stroke-miterlimit:10;" d="M293.066,189.402
					c1.553-3.106,1.553-3.106,1.553-3.106l-19.931-8.801l-0.776,1.035c0,0-0.001,0.018-0.002,0.043l1.701,2.943
					c0,0,5.217,9.674,16.33,12.487C292.17,192.221,292.521,190.492,293.066,189.402z"/>
			</g>
			<g>
				<path style="fill:#FFFFFF;stroke:#263238;stroke-linejoin:round;stroke-miterlimit:10;" d="M296.431,156.53
					c0,0,3.106,7.247,3.106,8.283c0,1.035-0.776,2.071-0.776,2.071s4.659,4.4,4.4,5.436c-0.259,1.035-2.588,2.33-2.588,2.33
					s1.812,9.577,1.812,10.871s-3.624,4.4-10.871,3.624c-7.247-0.777-11.907-5.436-11.907-5.436s-6.73-7.248-6.989-11.648
					c-0.259-4.4,4.918-17.083,11.389-18.895C290.477,151.353,296.431,156.53,296.431,156.53z"/>
				<path style="fill:#263238;" d="M295.395,167.789c0,0.929-0.406,1.682-0.906,1.682c-0.5,0-0.906-0.753-0.906-1.682
					s0.406-1.682,0.906-1.682C294.99,166.107,295.395,166.86,295.395,167.789z"/>
				<path style="fill:none;stroke:#263238;stroke-linejoin:round;stroke-miterlimit:10;" d="M291.513,165.589
					c0,0,2.588-3.365,5.694-1.553"/>
				<path style="fill:none;stroke:#263238;stroke-linejoin:round;stroke-miterlimit:10;" d="M290.995,175.684
					c0,0,1.553,2.588,6.989,1.553"/>
			</g>
			<path style="fill:#263238;stroke:#263238;stroke-linejoin:round;stroke-miterlimit:10;" d="M272.358,155.753
				c0,0-8.283,3.106-9.059,8.024c-0.777,4.918,6.212,11.648,7.247,12.683c1.035,1.035,6.989,1.035,8.542-1.035
				c1.553-2.071-0.777-5.436,0.777-6.73c1.553-1.294,3.624-0.777,4.141-4.659s-1.294-5.436,1.294-6.73
				c2.588-1.294,5.953,1.553,11.13-0.776c5.177-2.33,3.624-11.389-2.071-14.754s-14.754,1.294-15.013,3.106
				c-0.259,1.812,1.553,4.141,0,4.4c-1.553,0.259-4.918-0.777-5.436,1.812C273.394,153.683,272.358,155.753,272.358,155.753z"/>
			<path style="fill:#FFFFFF;stroke:#263238;stroke-linejoin:round;stroke-miterlimit:10;" d="M279.347,177.237
				c0,0-2.847-5.695-6.73-5.177c-3.883,0.518-2.847,9.059,0,10.871c2.847,1.812,6.73-1.812,6.73-1.812"/>
			<path style="fill:#92E3A9;stroke:#263238;stroke-linejoin:round;stroke-miterlimit:10;" d="M250.216,207.116
				c0,0-7.506,3.106-8.801,7.247c-1.294,4.141-17.342,41.932-18.895,45.038c-1.553,3.106,0.259,8.542,3.106,9.577
				c2.847,1.035,4.4,0,7.248-2.071c2.847-2.071,17.342-26.402,17.342-26.402"/>
			<g>
				<path style="fill:#263238;stroke:#263238;stroke-linejoin:round;stroke-miterlimit:10;" d="M241.19,236.201l-9.119,0.16
					c-1.035,0.018-1.889-0.807-1.908-1.842l-0.436-24.873c-0.018-1.035,0.806-1.889,1.842-1.908l9.119-0.16
					c1.035-0.018,1.889,0.806,1.908,1.842l0.436,24.872C243.05,235.328,242.226,236.182,241.19,236.201z"/>
				<g>
					<path style="fill:#FFFFFF;stroke:#263238;stroke-linejoin:round;stroke-miterlimit:10;" d="M227.592,242.13
						c0,0-0.076-14.947-0.184-17.061s2.445-4.278,3.996-5.331c1.55-1.053,8.182-4.113,8.974-3.752
						c0.792,0.361,0.543,1.662-0.535,2.433c-1.078,0.771-5.84,3.42-6.748,4.154c-0.908,0.734-0.821,3.565-0.821,3.565
						s5.48-2.628,7.105-3.341c1.625-0.713,3.42-1.464,4.079-0.896c0.659,0.568,0.336,1.529,0.336,1.529s0.734,0.908,0.58,1.832
						c-0.153,0.924-3.975,4.614-5.185,5.592c-1.21,0.978-2.516,2.334-2.516,2.334s7.27-1.774,7.78-1.886
						c0.51-0.112,1.111,1.003-0.307,1.849c-1.417,0.846-6.744,2.55-6.744,2.55s-0.269,2.019-1.542,5.148
						c-1.272,3.13-3.2,4.087-3.2,4.087s3.073,16.427,0.835,20.837c-2.238,4.411-9.21,7.545-12.008,2.102
						c-2.798-5.442-1.045-12.062,1.719-15.698C225.972,248.543,227.592,242.13,227.592,242.13z"/>
					<g>
						<path style="fill:#92E3A9;stroke:#263238;stroke-linejoin:round;stroke-miterlimit:10;" d="M234.155,256.334
							c-6.137,2.626-10.182,0.09-12.269-2.02c-1.91,3.758-2.713,9.06-0.398,13.562c2.798,5.442,9.77,2.308,12.008-2.102
							C234.407,263.979,234.438,260.193,234.155,256.334z"/>
						
							<line style="fill:none;stroke:#263238;stroke-linejoin:round;stroke-miterlimit:10;" x1="243.794" y1="223.431" x2="233.776" y2="229.728"/>
					</g>
					
						<line style="fill:none;stroke:#263238;stroke-linejoin:round;stroke-miterlimit:10;" x1="243.794" y1="223.431" x2="233.776" y2="229.728"/>
				</g>
			</g>
			<path style="fill:#FFFFFF;stroke:#263238;stroke-linejoin:round;stroke-miterlimit:10;" d="M317.435,284.885
				c0,0-7.452,1.597-8.339,1.774c-0.887,0.177-6.92,5.855-7.629,6.92c-0.71,1.065,1.242,1.774,2.129,1.774
				c0.887,0,5.678-3.549,5.678-3.549l-1.322,3.193l9.581,8.339c0,0,2.564-4.612,3.807-7.629c1.242-3.016,1.774-7.63,1.774-7.63"/>
		</g>
	</g>
</g>
<g id="Floor">
	<line style="fill:none;stroke:#263238;stroke-linejoin:round;stroke-miterlimit:10;" x1="9.431" y1="458.4" x2="493" y2="458.4"/>
</g>
</svg>
